<svg width="80" height="80" viewBox="0 0 80 80" fill="none" xmlns="http://www.w3.org/2000/svg">
<path d="M7.01266 34.6629L40.1048 14.7693L73.125 34.6629L40.0493 54.5858L7.01266 34.6629Z" fill="#C3C0B7"/>
<path d="M17.9652 34.6678L40.0924 21.3408L62.1714 33.3604V34.6678L40.0553 48.0144L17.9652 34.6678Z" fill="#595454"/>
<path d="M17.9652 33.3505L40.0924 20.0235L62.1714 33.3505L40.0553 46.6971L17.9652 33.3505Z" fill="#9F9E9E"/>
<path d="M7.01266 34.6775L6.875 46.6782L39.9312 66.5648L40.0688 54.5857L7.01266 34.6775Z" fill="#898883"/>
<path d="M73.0657 34.6775L72.928 46.6782L39.8719 66.5648L40.0095 54.5857L73.0657 34.6775Z" fill="#7E7B78"/>
<path d="M40.0683 46.6971V48.0143L17.9652 34.6775V33.3603L40.0683 46.6971Z" fill="#686766"/>
<path d="M41.3914 42.9031L41.3903 43.6165C41.3892 43.8526 41.2514 44.0887 40.9771 44.2686C40.4238 44.6323 39.5263 44.6336 38.9685 44.2699C38.6896 44.0874 38.5496 43.8475 38.5496 43.6088L38.5519 42.7561C38.5508 42.9947 38.6908 43.2347 38.9708 43.4171C39.5274 43.7808 40.425 43.7796 40.9793 43.4159C41.2537 43.2359 41.3914 42.9998 41.3914 42.7638" fill="#860211"/>
<path d="M24.1831 32.8593L24.182 33.5727C24.1808 33.8088 24.0431 34.0448 23.7687 34.2248C23.2155 34.5885 22.3179 34.5897 21.7602 34.2261C21.4813 34.0436 21.3413 33.8037 21.3413 33.565L21.3435 32.7123C21.3424 32.9509 21.4824 33.1908 21.7624 33.3733C22.319 33.737 23.2166 33.7357 23.771 33.372C24.0454 33.1921 24.1831 32.956 24.1831 32.7199" fill="#860211"/>
<path d="M41.5493 22.157L41.5482 22.8703C41.5471 23.1064 41.4093 23.3425 41.135 23.5224C40.5817 23.8861 39.6841 23.8874 39.1264 23.5237C38.8475 23.3412 38.7075 23.1013 38.7075 22.8627L38.7098 22.0099C38.7086 22.2486 38.8487 22.4885 39.1287 22.671C39.6853 23.0347 40.5829 23.0334 41.1372 22.6697C41.4116 22.4898 41.5493 22.2537 41.5493 22.0176" fill="#860211"/>
<path d="M59.3902 32.8593L59.389 33.5727C59.3879 33.8088 59.2502 34.0448 58.9758 34.2248C58.4226 34.5885 57.525 34.5897 56.9672 34.2261C56.6883 34.0436 56.5483 33.8037 56.5483 33.565L56.5506 32.7123C56.5495 32.9509 56.6895 33.1908 56.9695 33.3733C57.5261 33.737 58.4237 33.7357 58.9781 33.372C59.2524 33.1921 59.3902 32.956 59.3902 32.7199" fill="#860211"/>
<path d="M40.9719 42.1542C41.529 42.5086 41.5313 43.0807 40.9787 43.4351C40.4239 43.7883 39.5256 43.7895 38.9686 43.4351C38.4126 43.0819 38.4092 42.5086 38.9629 42.1542C39.5154 41.801 40.4149 41.801 40.9719 42.1542Z" fill="#D0021B"/>
<path d="M23.7636 32.1104C24.3207 32.4648 24.3229 33.0369 23.7704 33.3913C23.2156 33.7445 22.3173 33.7458 21.7602 33.3913C21.2043 33.0381 21.2009 32.4648 21.7546 32.1104C22.3071 31.7572 23.2065 31.7572 23.7636 32.1104Z" fill="#D0021B"/>
<path d="M41.1298 21.408C41.6869 21.7624 41.6892 22.3345 41.1366 22.6889C40.5818 23.0421 39.6835 23.0434 39.1265 22.6889C38.5705 22.3358 38.5671 21.7624 39.1208 21.408C39.6733 21.0548 40.5728 21.0548 41.1298 21.408Z" fill="#D0021B"/>
<path d="M58.9707 32.1104C59.5277 32.4648 59.53 33.0369 58.9774 33.3913C58.4226 33.7445 57.5243 33.7458 56.9673 33.3913C56.4113 33.0381 56.408 32.4648 56.9616 32.1104C57.5142 31.7572 58.4136 31.7572 58.9707 32.1104Z" fill="#D0021B"/>
<path d="M29.3909 33.4742L30.8483 34.3663L35.2099 31.6067L38.5559 33.543V29.8841L38.5379 39.011L39.9593 39.8547L50.398 33.5098L50.3978 32.2041L50.3968 24.3042L48.9935 23.481L44.4325 26.2252L38.5559 23.7554L41.2749 24.8531V18.8158L39.8716 18.7244L29.434 24.3042L29.3909 33.4742Z" fill="#848185"/>
<path d="M43.0484 27.0418L38.7073 29.7641L38.5561 33.543L35.2101 31.6067L35.205 22.2632L43.0484 27.0418Z" fill="#979598"/>
<path d="M29.4024 24.2723L30.8484 25.1644L35.3284 22.4454L43.0483 27.0417L38.5494 29.8091L39.9708 30.6528L50.4095 24.3079L48.9619 23.4635L44.396 26.2656L36.729 21.5983L41.275 18.8158L39.8708 17.963L29.4024 24.2723Z" fill="#BAB9BA"/>
<path d="M39.9699 30.6528V39.8547L38.5376 39.011V29.764L39.9699 30.6528Z" fill="#ACA9AD"/>
<path d="M30.8474 25.1644V34.3663L29.4151 33.5226V24.2756L30.8474 25.1644Z" fill="#ACA9AD"/>
<path d="M29.3909 33.4742L30.8483 34.3663L35.2099 31.6067L38.5559 33.543V29.8841L38.5379 39.011L39.9593 39.8547L50.398 33.5098L50.3978 32.2041L50.3968 24.3042L48.9935 23.481L44.4325 26.2252L38.5559 23.7554L41.2749 24.8531V18.8158L39.8716 18.7244L29.434 24.3042L29.3909 33.4742Z" fill="#696769"/>
<path d="M43.0484 27.0418L38.7073 29.7641L38.5561 33.543L35.2101 31.6067L35.205 22.2632L43.0484 27.0418Z" fill="#7B7C7D"/>
<path d="M29.4024 24.2723L30.8484 25.1644L35.3284 22.4454L43.0483 27.0417L38.5494 29.8091L39.9708 30.6528L50.4095 24.3079L48.9619 23.4635L44.396 26.2656L36.729 21.5983L41.275 18.8158L39.8708 17.963L29.4024 24.2723Z" fill="#8E8E8E"/>
<path d="M39.9699 30.6528V39.8547L38.5376 39.011V29.764L39.9699 30.6528Z" fill="#7B7C7D"/>
<path d="M30.8474 25.1644V34.3663L29.4151 33.5226V24.2756L30.8474 25.1644Z" fill="#7B7C7D"/>
<path d="M46.4175 29.346L51.3293 39.0422L50.3165 39.6027L46.4175 35.9848L45.4047 29.9065L46.4175 29.346Z" fill="#8E8E8E"/>
<path d="M45.4047 29.9066L50.3165 39.6027L45.4047 36.5453V29.9066Z" fill="#7B7C7D"/>
</svg>