<svg width="80" height="80" viewBox="0 0 80 80" fill="none" xmlns="http://www.w3.org/2000/svg">
<path d="M5.00006 28.0005V44.0005L47.0001 68.0005V52.0005L5.00006 28.0005Z" fill="#7E7B78" fill-opacity="0.6"/>
<path d="M75 36.001V52.001L47 68.001V52.001L75 36.001Z" fill="#898883" fill-opacity="0.6"/>
<path d="M53.7554 52.1414L53.7543 52.8177C53.7533 53.0415 53.6258 53.2654 53.3717 53.436C52.8594 53.7808 52.0282 53.782 51.5118 53.4372C51.2535 53.2642 51.1239 53.0367 51.1239 52.8105L51.126 52.002C51.1249 52.2282 51.2546 52.4557 51.5139 52.6287C52.0293 52.9735 52.8605 52.9723 53.3738 52.6275C53.6278 52.4569 53.7554 52.233 53.7554 52.0092" fill="#747274"/>
<path d="M53.3669 51.4328C53.8828 51.7688 53.8849 52.3112 53.3732 52.6473C52.8595 52.9821 52.0277 52.9833 51.5118 52.6473C50.997 52.3124 50.9939 51.7688 51.5066 51.4328C52.0182 51.0979 52.8511 51.0979 53.3669 51.4328Z" fill="#9B9995"/>
<rect width="1.33631" height="16.0357" rx="0.668153" transform="matrix(-1 0 0 1 53.1876 36.7041)" fill="#524F53"/>
<path d="M41.9121 44.9026L41.9111 45.5789C41.91 45.8028 41.7825 46.0266 41.5284 46.1972C41.0161 46.542 40.185 46.5432 39.6685 46.1984C39.4103 46.0254 39.2806 45.7979 39.2806 45.5717L39.2827 44.7632C39.2817 44.9894 39.4113 45.2169 39.6706 45.3899C40.186 45.7347 41.0172 45.7335 41.5305 45.3887C41.7846 45.2181 41.9121 44.9943 41.9121 44.7704" fill="#747274"/>
<path d="M41.5237 44.194C42.0395 44.5301 42.0416 45.0724 41.53 45.4085C41.0162 45.7433 40.1844 45.7445 39.6686 45.4085C39.1538 45.0736 39.1506 44.5301 39.6633 44.194C40.175 43.8592 41.0078 43.8592 41.5237 44.194Z" fill="#9B9995"/>
<rect width="1.33631" height="16.0357" rx="0.668153" transform="matrix(-1 0 0 1 41.1603 29.353)" fill="#524F53"/>
<path d="M29.3803 36.9119L29.3793 37.5882C29.3782 37.8121 29.2507 38.0359 28.9966 38.2065C28.4844 38.5513 27.6532 38.5525 27.1367 38.2077C26.8785 38.0347 26.7488 37.8072 26.7488 37.581L26.7509 36.7725C26.7499 36.9987 26.8795 37.2262 27.1388 37.3992C27.6542 37.744 28.4854 37.7428 28.9987 37.398C29.2528 37.2274 29.3803 37.0036 29.3803 36.7797" fill="#747274"/>
<path d="M28.9919 36.2007C29.5077 36.5368 29.5098 37.0792 28.9982 37.4152C28.4844 37.7501 27.6526 37.7512 27.1368 37.4152C26.622 37.0803 26.6188 36.5368 27.1315 36.2007C27.6432 35.8659 28.4761 35.8659 28.9919 36.2007Z" fill="#9B9995"/>
<rect width="1.33631" height="16.0357" rx="0.668153" transform="matrix(-1 0 0 1 28.4658 21.3354)" fill="#757275"/>
<path d="M24.2458 24.185L51.815 40.7358L53.0546 40.6954L54.0284 39.9855L55.3003 38.4331L27.6973 22.1965L24.2458 24.185Z" fill="#979598"/>
<path d="M26.2348 23.9799L54.2052 39.8142L55.3071 38.5921L27.7374 23.1428L26.2348 23.9799Z" fill="#979598"/>
<path d="M26.1783 22.6469L54.1488 38.4812L55.2676 37.6604L27.681 21.8098L26.1783 22.6469Z" fill="#757275"/>
<path d="M27.6821 21.8097L27.6494 21.0376L26.1467 21.8746L26.1794 22.6467L27.6821 21.8097Z" fill="#757275"/>
<path d="M26.1472 21.8729L54.1176 37.7073L55.2365 36.8865L27.6499 21.0359L26.1472 21.8729Z" fill="#524F53"/>
<path d="M53.4046 41.0127L54.7115 40.2887L55.3085 38.5916L55.269 37.6587L54.6409 38.6198L54.3495 39.6352L53.0426 40.3593L52.3609 40.0537L51.7866 40.0281L51.8164 40.733L53.4046 41.0127Z" fill="#757275"/>
<path d="M51.7907 40.1336L52.3631 40.1094L52.3466 39.7198L53.0252 39.1806L52.9974 38.5278L51.7526 39.2344L51.7907 40.1336Z" fill="#757275"/>
<path d="M25.7109 23.5202L25.3942 22.2914L23.8915 23.1285L24.2461 24.1827L25.7109 23.5202Z" fill="#979598"/>
<path d="M23.8919 23.1278L51.7528 39.2342L52.9976 38.5274L25.3946 22.2908L23.8919 23.1278Z" fill="#524F53"/>
<path d="M55.3085 38.5902L55.2364 36.8848L54.1174 37.7056L54.1382 38.1967L54.6508 37.9492L54.6415 38.5797L54.6409 38.6184L55.3085 38.5902Z" fill="#757275"/>
<path d="M75 35.9995L33 11.9995L5 27.9995L47 51.9995L75 35.9995Z" fill="#C3C0B7" fill-opacity="0.5"/>
<path d="M45.5833 33.5124L45.5845 34.255C45.5856 34.5008 45.7257 34.7466 46.0046 34.9339C46.5671 35.3125 47.4797 35.3138 48.0467 34.9352C48.3303 34.7452 48.4726 34.4955 48.4726 34.2471L48.4703 33.3594C48.4714 33.6078 48.3291 33.8575 48.0444 34.0475C47.4785 34.4261 46.5659 34.4248 46.0023 34.0462C45.7234 33.8589 45.5833 33.6131 45.5833 33.3673" fill="#860211"/>
<path d="M46.0099 32.7318C45.4436 33.1008 45.4413 33.6963 46.003 34.0652C46.5671 34.4329 47.4804 34.4342 48.0467 34.0652C48.6119 33.6976 48.6154 33.1008 48.0525 32.7318C47.4907 32.3641 46.5763 32.3641 46.0099 32.7318Z" fill="#D0021B"/>
<path d="M32.6048 26.0564L32.606 26.799C32.6071 27.0447 32.7472 27.2905 33.0261 27.4778C33.5886 27.8564 34.5012 27.8577 35.0682 27.4791C35.3517 27.2892 35.4941 27.0394 35.4941 26.791L35.4918 25.9033C35.4929 26.1517 35.3506 26.4015 35.0659 26.5914C34.5 26.97 33.5874 26.9687 33.0238 26.5901C32.7449 26.4028 32.6048 26.157 32.6048 25.9113" fill="#860211"/>
<path d="M33.0313 25.2757C32.465 25.6447 32.4627 26.2402 33.0244 26.6092C33.5885 26.9768 34.5018 26.9781 35.0682 26.6092C35.6334 26.2415 35.6368 25.6447 35.0739 25.2757C34.5121 24.9081 33.5977 24.9081 33.0313 25.2757Z" fill="#D0021B"/>
</svg>