<svg width="80" height="80" viewBox="0 0 80 80" fill="none" xmlns="http://www.w3.org/2000/svg">
<path fill-rule="evenodd" clip-rule="evenodd" d="M62.7676 71.0286L22.279 48.0141L17.3834 9.79563L22.279 6.91534L62.7674 29.9303L62.7676 71.0286Z" fill="#E6E2D7"/>
<path fill-rule="evenodd" clip-rule="evenodd" d="M58.8458 73.8456L17.3846 50.1649L17.2308 8.28589L59.2304 31.9666L58.8458 73.8456Z" fill="#B8B2A8"/>
<path fill-rule="evenodd" clip-rule="evenodd" d="M58.8457 73.8456L62.7687 71.4851L62.6918 29.9107L58.8557 32.0625L58.8457 73.8456Z" fill="#754E33"/>
<path fill-rule="evenodd" clip-rule="evenodd" d="M52.2311 67.261L55.3819 69.0623L55.7195 69.2549L58.8623 71.0509V73.8462L52.2311 70.057V67.261ZM55.7312 65.9657L58.8624 67.7547V70.5508L55.7312 68.7618V65.9657ZM45.2312 63.2609L48.382 65.0614L48.7197 65.2549L51.8704 67.0553V69.8505L45.2312 66.0561V63.2609ZM48.7312 61.966L55.3704 65.7595V68.5556L52.2196 66.7542L51.882 66.5625L48.7312 64.7621V61.966ZM52.2311 60.7126L55.3819 62.5139L55.7195 62.7065L58.8623 64.5026V67.2978L52.2311 63.5087V60.7126ZM38.2312 59.2599L41.382 61.0613L41.7197 61.2539L44.8705 63.0543V65.8495L38.2312 62.056V59.2599ZM41.7313 57.965L48.3705 61.7585V64.5546L45.2198 62.7541L44.8821 62.5615L41.7313 60.7611V57.965ZM55.7312 59.4174L58.8624 61.2064V64.0025L55.7312 62.2135V59.4174ZM45.2312 56.7126L48.382 58.513L48.7197 58.7065L51.8704 60.507V63.3022L45.2312 59.5078V56.7126ZM48.7312 55.4176L55.3704 59.2111V62.0072L52.2196 60.2059L51.882 60.0141L48.7312 58.2137V55.4176ZM31.2316 55.2604L34.3824 57.06L34.7201 57.2535L37.87 59.0539V61.85L31.2316 58.0556V55.2604ZM52.2311 54.1642L55.3819 55.9656L55.7195 56.1582L58.8623 57.9542V60.7495L52.2311 56.9603V54.1642ZM34.7314 53.9649L41.3707 57.7584L41.3698 60.5545L38.219 58.7532L37.8813 58.5615L34.7314 56.761V53.9649ZM38.2312 52.7116L41.382 54.5129L41.7197 54.7055L44.8705 56.506V59.3012L38.2312 55.5077V52.7116ZM41.7313 51.4166L48.3705 55.2101V58.0062L45.2198 56.2058L44.8821 56.0132L41.7313 54.2127V51.4166ZM24.2308 51.2604L27.3816 53.06L27.7202 53.2535L30.8701 55.0539V57.8491L24.2308 54.0547V51.2604ZM55.7312 52.9213L58.8624 54.7103V57.5064L55.7312 55.7174V52.9213ZM45.2312 50.1642L48.382 51.9647L48.7197 52.1582L51.8704 53.9586V56.7538L45.2312 52.9594V50.1642ZM27.7316 49.9641L34.37 53.7585V56.5537L31.2192 54.7533L30.8815 54.5598L27.7307 52.7602L27.7316 49.9641ZM48.7312 48.9212L55.3704 52.7147V55.5108L48.7312 51.7164V48.9212ZM31.2316 48.7121L34.3824 50.5116L34.7201 50.7051L37.87 52.5056V55.3017L31.2316 51.5073V48.7121ZM52.2311 47.6679L55.3819 49.4684L55.7195 49.6619L58.8623 51.4579V54.2531L52.2311 50.464V47.6679ZM34.7314 47.4166L41.3707 51.2101L41.3698 54.0062L38.219 52.2049L37.8813 52.0131L34.7314 50.2127V47.4166ZM17.2309 47.2594L20.3817 49.059L20.7255 49.256L23.8701 51.0529V53.849L17.2309 50.0546V47.2594ZM38.2312 46.1632L41.382 47.9645L41.7197 48.1572L44.8705 49.9576V52.7528L38.2312 48.9593V46.1632ZM20.7317 45.9641L27.3701 49.7576V52.5537L24.2193 50.7533L23.8816 50.5598L20.7309 48.7602L20.7317 45.9641ZM41.7313 44.9203L48.3705 48.7138V51.5099L41.7313 47.7164V44.9203ZM24.2308 44.7121L27.3816 46.5116L27.7202 46.7051L30.8701 48.5056V51.3008L24.2308 47.5064V44.7121ZM55.7312 46.4729L58.8624 48.262V51.0581L55.7312 49.269V46.4729ZM45.2312 43.6678L48.382 45.4682L48.7197 45.6617L51.8704 47.4622L51.8696 50.2574L45.2312 46.463V43.6678ZM27.7316 43.4158L34.37 47.2102V50.0054L31.2192 48.2049L30.8815 48.0114L27.7307 46.2119L27.7316 43.4158ZM48.7312 42.4732L55.3704 46.2667V49.0628L52.2196 47.2615L51.882 47.0697L48.7312 45.2693V42.4732ZM31.2316 42.1637L34.3824 43.9633L34.7201 44.1568L37.87 45.9572V48.7533L31.2316 44.9589V42.1637ZM17.2312 43.9634L20.3758 45.7612V48.5564L17.2312 46.7595V43.9634ZM52.2311 41.2198L55.3819 43.0211L55.7195 43.2138L58.8623 45.0098V47.805L52.2311 44.0159V41.2198ZM34.7314 40.9202L41.3698 44.7137V47.5098L34.7314 43.7163V40.9202ZM17.2309 40.7111L20.3817 42.5106L20.7255 42.7076L23.8701 44.5046V47.3007L17.2309 43.5063V40.7111ZM38.2312 39.6669L41.382 41.4682L41.7197 41.6608L44.8705 43.4613L44.8696 46.2565L38.2312 42.463V39.6669ZM20.7317 39.4157L27.3701 43.2093V46.0053L24.2193 44.2049L23.8816 44.0114L20.7309 42.2118L20.7317 39.4157ZM41.7313 38.4722L48.3705 42.2657V45.0618L45.2198 43.2614L44.8821 43.0687L41.7313 41.2683V38.4722ZM24.2308 38.1637L27.3816 39.9633L27.7202 40.1568L30.8701 41.9572V44.7524L24.2308 40.958V38.1637ZM55.7312 40.025L58.8624 41.814V44.6101L55.7312 42.821V40.025ZM45.2312 37.2198L48.382 39.0202L48.7197 39.2137L51.8704 41.0142V43.8094L45.2312 40.015V37.2198ZM27.7311 36.9193L34.3703 40.7128V43.5089L27.7311 39.7153V36.9193ZM48.7312 36.0251L55.3704 39.8186V42.6147L52.2196 40.8134L51.882 40.6216L48.7312 38.8212V36.0251ZM31.2314 35.6669L34.3821 37.4673L34.7198 37.6608L37.8697 39.4612V42.2565L31.2314 38.463V35.6669ZM17.2312 37.415L20.3758 39.2128V42.008L17.2312 40.2111V37.415ZM52.2311 34.7718L55.3819 36.5732L55.7195 36.7658L58.8623 38.5618V41.357L52.2311 37.5679V34.7718ZM34.7314 34.4722L41.3707 38.2657L41.3698 41.0618L38.219 39.2604L37.8813 39.0687L34.7314 37.2683V34.4722ZM17.2309 34.1627L20.3817 35.9623L20.7255 36.1593L23.8701 37.9562V40.7523L17.2309 36.9579V34.1627ZM38.2312 33.2188L41.382 35.0201L41.7197 35.2127L44.8705 37.0132V39.8084L38.2312 36.0149V33.2188ZM20.7311 32.9192L27.3703 36.7127V39.5088L20.7311 35.7153V32.9192ZM41.7313 32.0242L48.3705 35.8177V38.6138L45.2198 36.8134L44.8821 36.6207L41.7313 34.8203V32.0242ZM24.2308 31.6664L27.3816 33.4668L27.7193 33.6595L30.8701 35.4599V38.256L24.2308 34.4616V31.6664ZM55.7316 33.5769L58.862 35.3668V38.162L55.7316 36.373V33.5769ZM45.2312 30.7717L48.382 32.5722L48.7197 32.7657L51.8704 34.5661V37.3613L45.2312 33.5678V30.7717ZM27.7316 30.4713L34.37 34.2657V37.061L31.2192 35.2605L30.8815 35.067L27.7307 33.2674L27.7316 30.4713ZM48.7317 29.5771L55.37 33.3706V36.1667L52.2192 34.3654L51.8816 34.1736L48.7317 32.3732V29.5771ZM31.2316 29.2193L34.3824 31.0189L34.7201 31.2124L37.87 33.0128V35.8089L31.2316 32.0145V29.2193ZM17.2312 30.9187L20.3758 32.7156V35.5117L17.2312 33.7148V30.9187ZM52.2312 28.3237L58.8624 32.1136V34.9097L52.2312 31.1198V28.3237ZM34.7312 28.0243L41.3704 31.8178V34.6139L38.2196 32.8134L37.882 32.6199L34.7312 30.8204V28.0243ZM17.2309 27.6664L20.3817 29.4659L20.7255 29.6629L23.8701 31.4599V34.256L17.2309 30.4616V27.6664ZM38.2312 26.7708L41.382 28.5721L41.7197 28.7648L44.8705 30.5661V33.3604L38.2312 29.5669V26.7708ZM20.7317 26.4713L27.3701 30.2648V33.0609L24.2193 31.2605L23.8816 31.067L20.7309 29.2674L20.7317 26.4713ZM41.7313 25.5761L48.3705 29.3705V32.1657L45.2198 30.3653L44.8821 30.1726L41.7313 28.3722V25.5761ZM24.2308 25.2193L27.3816 27.0188L27.7202 27.2123L30.8701 29.0128V31.808L24.2308 28.0136V25.2193ZM45.231 24.324L51.8703 28.1175V30.9136L45.231 27.1201V24.324ZM27.7316 24.0242L34.37 27.8177V30.613L31.2201 28.8125L30.8815 28.6199L27.7316 26.8194V24.0242ZM31.2312 22.7713L34.382 24.5709L34.7196 24.7644L37.8704 26.5648V29.3609L31.2312 25.5665V22.7713ZM17.2312 24.4706L20.3758 26.2684V29.0636L17.2312 27.2667V24.4706ZM34.7312 21.5763L41.3704 25.3698V28.1659L38.2196 26.3654L37.882 26.1719L34.7312 24.3724V21.5763ZM17.2309 21.2183L20.3817 23.0178L20.7255 23.2149L23.8701 25.0118V27.8079L17.2309 24.0135V21.2183ZM38.2311 20.324L44.8703 24.1175V26.9127L38.2311 23.1192V20.324ZM20.7317 20.0232L27.3701 23.8167V26.6128L24.2193 24.8124L23.8816 24.6189L20.7317 22.8193V20.0232ZM24.2317 18.7712L27.3825 20.5708L27.7202 20.7634L30.8701 22.5647V25.3599L24.2317 21.5655V18.7712ZM27.7312 17.5761L34.3704 21.3697V24.1657L31.2196 22.3644L30.882 22.1718L27.7312 20.3714V17.5761ZM31.2312 16.323L37.8704 20.1165V22.9126L31.2312 19.1191V16.323ZM17.2312 18.0226L20.3758 19.8204V22.6156L17.2312 20.8187V18.0226ZM17.2309 14.7703L20.3817 16.5707L20.7255 16.7669L23.8701 18.5638V21.3599L17.2309 17.5655V14.7703ZM20.7313 13.5752L27.3705 17.3687V20.1648L24.2197 18.3644L23.8821 18.1709L20.7313 16.3713V13.5752ZM24.2317 12.3229L30.8701 16.1164V18.9125L24.2317 15.119V12.3229ZM17.2308 11.5745L20.3762 13.3723V16.1684L17.2308 14.3706V11.5745ZM17.2318 8.3222L23.8701 12.1157V14.9118L17.2309 11.1174L17.2318 8.3222Z" fill="#B18A6F"/>
<path fill-rule="evenodd" clip-rule="evenodd" d="M56.0644 26.1345L62.6956 29.9245L58.8633 32.1137L52.2321 28.3237L56.0644 26.1345ZM49.0719 22.1379L55.7031 25.9279L51.8708 28.118L45.2405 24.328L49.0719 22.1379ZM42.0797 18.1421L48.7109 21.9321L44.8786 24.1221L38.2483 20.3322L42.0797 18.1421ZM35.0872 14.1463L41.7184 17.9363L37.8861 20.1255L31.2558 16.3355L35.0872 14.1463ZM28.0951 10.1497L34.7264 13.9397L30.8941 16.1297L24.2628 12.3398L28.0951 10.1497ZM21.1025 6.15387L27.7338 9.94386L23.9015 12.1339L17.2711 8.34395L21.1025 6.15387Z" fill="#DAC2B1"/>
<path fill-rule="evenodd" clip-rule="evenodd" d="M62.7691 68.3394V68.7201L58.846 71.0044V70.5475L62.7691 68.3394Z" fill="#A0998B"/>
<path fill-rule="evenodd" clip-rule="evenodd" d="M62.7691 32.759V33.1397L58.846 35.424V34.9671L62.7691 32.759Z" fill="#A0998B"/>
<path fill-rule="evenodd" clip-rule="evenodd" d="M62.7691 42.353V42.7337L58.846 45.0181V44.5612L62.7691 42.353Z" fill="#A0998B"/>
<path fill-rule="evenodd" clip-rule="evenodd" d="M62.7691 35.8808V36.2615L58.846 38.5458V38.089L62.7691 35.8808Z" fill="#A0998B"/>
<path fill-rule="evenodd" clip-rule="evenodd" d="M62.7691 45.4749V45.8556L58.846 48.1399V47.6831L62.7691 45.4749Z" fill="#A0998B"/>
<path fill-rule="evenodd" clip-rule="evenodd" d="M62.7691 52.0994V52.4801L58.846 54.7645V54.3076L62.7691 52.0994Z" fill="#A0998B"/>
<path fill-rule="evenodd" clip-rule="evenodd" d="M62.7691 58.5097V58.8904L58.846 61.1747V60.7179L62.7691 58.5097Z" fill="#A0998B"/>
<path fill-rule="evenodd" clip-rule="evenodd" d="M62.7691 65.1343V65.515L58.846 67.7993V67.3424L62.7691 65.1343Z" fill="#A0998B"/>
<path fill-rule="evenodd" clip-rule="evenodd" d="M62.7691 39.086V39.4667L58.846 41.751V41.2942L62.7691 39.086Z" fill="#A0998B"/>
<path fill-rule="evenodd" clip-rule="evenodd" d="M62.7691 48.6801V49.0608L58.846 51.3451V50.8882L62.7691 48.6801Z" fill="#A0998B"/>
<path fill-rule="evenodd" clip-rule="evenodd" d="M62.7691 55.3046V55.6853L58.846 57.9696V57.5127L62.7691 55.3046Z" fill="#A0998B"/>
<path fill-rule="evenodd" clip-rule="evenodd" d="M62.7691 61.7149V62.0956L58.846 64.3799V63.9231L62.7691 61.7149Z" fill="#A0998B"/>
<path fill-rule="evenodd" clip-rule="evenodd" d="M48.1519 55.7995L28.9363 43.3476L26.4598 24.088L27.698 23.3623L48.1039 35.0416L48.1519 55.7995Z" fill="#BAB9BA"/>
<path fill-rule="evenodd" clip-rule="evenodd" d="M46.921 56.4088L26.4598 44.8195V24.1237L46.9209 35.7132L46.921 56.4088Z" fill="#E0E0E0"/>
<path fill-rule="evenodd" clip-rule="evenodd" d="M46.9226 56.4088L48.1532 55.6774L48.1533 35.0884L46.9226 35.7737V56.4088Z" fill="#979598"/>
<path d="M44.2979 38.5191C43.7032 38.1985 43.2226 37.4201 43.2249 36.7812C43.2254 36.5775 43.1067 36.3666 43.2249 36.2964C43.6095 36.068 43.9006 35.9875 44.3049 36.2058C44.8997 36.5263 45.3811 37.3047 45.3787 37.9429C45.3779 38.2909 45.2249 38.5046 44.9172 38.6569C44.5213 38.8528 44.5687 38.665 44.2979 38.5191Z" fill="#AB0115"/>
<path d="M43.8416 38.7579C43.2469 38.4373 42.7663 37.6589 42.7686 37.02C42.7702 36.3818 43.2547 36.124 43.8487 36.4446C44.4434 36.7651 44.9248 37.5435 44.9224 38.1817C44.9209 38.8207 44.4363 39.0784 43.8416 38.7579Z" fill="#D0021B"/>
<path fill-rule="evenodd" clip-rule="evenodd" d="M48.1549 55.7996L28.9393 43.3476L26.4628 24.0881L27.701 23.3624L48.1069 35.0417L48.1549 55.7996Z" fill="#BAB9BA"/>
<path fill-rule="evenodd" clip-rule="evenodd" d="M46.924 56.4088L26.4628 44.8196V24.1238L46.9239 35.7133L46.924 56.4088Z" fill="#E9E9E9"/>
<path fill-rule="evenodd" clip-rule="evenodd" d="M46.9226 56.4088L48.1532 55.6774L48.1533 35.0884L46.9226 35.7737V56.4088Z" fill="#979598"/>
<path d="M44.2979 38.5191C43.7032 38.1985 43.2226 37.4201 43.2249 36.7812C43.2254 36.5775 43.1067 36.3666 43.2249 36.2964C43.6095 36.068 43.9006 35.9875 44.3049 36.2058C44.8997 36.5263 45.3811 37.3047 45.3787 37.9429C45.3779 38.2909 45.2249 38.5046 44.9172 38.6569C44.5213 38.8528 44.5687 38.665 44.2979 38.5191Z" fill="#AB0115"/>
<path d="M43.8416 38.7579C43.2469 38.4373 42.7663 37.6589 42.7686 37.02C42.7702 36.3818 43.2547 36.124 43.8487 36.4446C44.4434 36.7651 44.9248 37.5435 44.9224 38.1817C44.9209 38.8207 44.4363 39.0784 43.8416 38.7579Z" fill="#D0021B"/>
<path d="M29.1459 29.6103C28.5512 29.2898 28.0705 28.5114 28.0729 27.8724C28.0734 27.6688 27.9547 27.4579 28.0729 27.3877C28.4575 27.1592 28.7485 27.0788 29.1529 27.297C29.7476 27.6176 30.229 28.396 30.2267 29.0342C30.2258 29.3822 30.0729 29.5958 29.7652 29.7481C29.3693 29.944 29.4167 29.7563 29.1459 29.6103Z" fill="#AB0115"/>
<path d="M28.689 29.849C28.0943 29.5285 27.6136 28.7501 27.616 28.1112C27.6175 27.473 28.1021 27.2152 28.696 27.5358C29.2907 27.8563 29.7721 28.6347 29.7698 29.2729C29.7682 29.9118 29.2837 30.1696 28.689 29.849Z" fill="#D0021B"/>
<path d="M44.2979 52.6057C43.7032 52.2851 43.2226 51.5067 43.2249 50.8678C43.2254 50.6641 43.1067 50.4532 43.2249 50.383C43.6095 50.1546 43.9006 50.0741 44.3049 50.2924C44.8997 50.613 45.3811 51.3914 45.3787 52.0295C45.3779 52.3775 45.2249 52.5912 44.9172 52.7435C44.5213 52.9394 44.5687 52.7517 44.2979 52.6057Z" fill="#AB0115"/>
<path d="M43.8416 52.8444C43.2469 52.5238 42.7663 51.7454 42.7686 51.1065C42.7702 50.4683 43.2547 50.2106 43.8487 50.5311C44.4434 50.8517 44.9248 51.6301 44.9224 52.2683C44.9209 52.9072 44.4363 53.165 43.8416 52.8444Z" fill="#D0021B"/>
<path d="M29.1459 43.6969C28.5512 43.3763 28.0705 42.5979 28.0729 41.959C28.0734 41.7553 27.9547 41.5444 28.0729 41.4742C28.4575 41.2458 28.7485 41.1653 29.1529 41.3836C29.7476 41.7041 30.229 42.4825 30.2267 43.1207C30.2258 43.4687 30.0729 43.6824 29.7652 43.8347C29.3693 44.0306 29.4167 43.8428 29.1459 43.6969Z" fill="#AB0115"/>
<path d="M28.689 43.9357C28.0943 43.6151 27.6136 42.8367 27.616 42.1978C27.6175 41.5596 28.1021 41.3018 28.696 41.6224C29.2907 41.9429 29.7721 42.7213 29.7698 43.3595C29.7682 43.9984 29.2837 44.2562 28.689 43.9357Z" fill="#D0021B"/>
<path d="M34.8195 42.6828L34.2527 36.1104L30.8519 34.1868V32.9043L32.5192 31.8624L40.4091 36.3637V37.6589L38.787 38.6752L37.0057 37.6333L37.0148 43.8273L40.3831 45.7638V47.059L38.787 48.0529L30.8519 43.5644V42.282L32.4933 41.2497L34.8195 42.6828Z" fill="#979598"/>
<path d="M34.2324 44.2131L34.2583 36.1082L30.8769 34.1718V32.8893L38.7667 37.3906V38.6859L35.3854 36.7622L35.3724 44.8543L38.7408 46.7908V48.086L30.851 43.5719V42.2767L34.2324 44.2131Z" fill="#BAB9BA"/>
</svg>