<svg width="120" height="120" viewBox="0 0 120 120" fill="none" xmlns="http://www.w3.org/2000/svg">
<path d="M12 80.0253L60 107.738L108 80.0253L60 52.3125L12 80.0253Z" fill="#C2C1B7"/>
<path opacity="0.75" d="M60.0005 27.1125L60 52.3063L12 80.0191L12.0019 54.8246" fill="#A0998B"/>
<path opacity="0.75" d="M108 80.019L60 52.3063L60.0005 27.1125L107.999 54.8252" fill="#B8B2A8"/>
<path opacity="0.5" d="M38.1875 54.8289L60.0057 42.2322V12L38 24" fill="#726658"/>
<path opacity="0.5" d="M81.8182 54.8289L60 42.2322V12L82 24" fill="#9B8579"/>
<path opacity="0.6" d="M60 27.1125L12 54.8254H38.1818L60 42.2286L81.8182 54.8254H108L60 27.1125Z" fill="#CCC6BD"/>
<path fill-rule="evenodd" clip-rule="evenodd" d="M43.9994 25.3055V77.4882H44.0043C44.0073 77.6182 44.0783 77.748 44.2201 77.8475C44.5121 78.051 44.9854 78.0516 45.2787 77.8475C45.4358 77.7383 45.5064 77.5923 45.4955 77.4491V25.3055H43.9994Z" fill="#D2051E"/>
<path d="M44.2181 25.0182C43.9241 25.165 43.9229 25.4019 44.2145 25.5486C44.5074 25.6949 44.9815 25.6954 45.2755 25.5486C45.569 25.4024 45.5708 25.165 45.2785 25.0182C44.9869 24.872 44.5121 24.872 44.2181 25.0182Z" fill="#860211"/>
<path fill-rule="evenodd" clip-rule="evenodd" d="M53.0033 21.528V73.7106H53.0082C53.0112 73.8405 53.0825 73.9695 53.224 74.069C53.5161 74.2725 53.9893 74.2732 54.2826 74.069C54.4395 73.9598 54.5103 73.8146 54.4994 73.6715V21.528H53.0033Z" fill="#D2051E"/>
<path d="M53.222 21.2406C52.928 21.3874 52.9268 21.6243 53.2184 21.7711C53.5113 21.9173 53.9854 21.9178 54.2794 21.7711C54.5729 21.6248 54.5747 21.3874 54.2824 21.2406C53.9908 21.0944 53.516 21.0944 53.222 21.2406Z" fill="#860211"/>
<path fill-rule="evenodd" clip-rule="evenodd" d="M59.0033 18.397V70.5796H59.0082C59.0112 70.7095 59.0825 70.8385 59.224 70.938C59.5161 71.1415 59.9893 71.1422 60.2826 70.938C60.4395 70.8288 60.5103 70.6836 60.4994 70.5405V18.397H59.0033Z" fill="#D2051E"/>
<path d="M59.222 18.1097C58.928 18.2564 58.9268 18.4933 59.2184 18.6401C59.5113 18.7863 59.9854 18.7868 60.2794 18.6401C60.5729 18.4938 60.5747 18.2564 60.2824 18.1097C59.9908 17.9634 59.516 17.9634 59.222 18.1097Z" fill="#860211"/>
<path fill-rule="evenodd" clip-rule="evenodd" d="M52.0035 30.3962V82.489H52.0084C52.0115 82.6188 52.0825 82.7481 52.2242 82.8474C52.5163 83.0506 52.9895 83.0513 53.2828 82.8474C53.44 82.7383 53.5105 82.5929 53.4996 82.45V30.3962H52.0035Z" fill="#D2051E"/>
<path d="M52.2222 30.1097C51.9282 30.2564 51.927 30.4933 52.2187 30.6401C52.5115 30.7863 52.9857 30.7868 53.2797 30.6401C53.5731 30.4938 53.5749 30.2564 53.2827 30.1097C52.991 29.9634 52.5163 29.9634 52.2222 30.1097Z" fill="#860211"/>
<path fill-rule="evenodd" clip-rule="evenodd" d="M59.0028 33.4135V87.7699H59.0077C59.0108 87.9053 59.0818 88.0403 59.2235 88.1439C59.5156 88.3559 59.9888 88.3566 60.2821 88.1439C60.4393 88.0301 60.5098 87.8781 60.4989 87.7289V33.4135H59.0028Z" fill="#D2051E"/>
<path d="M59.2215 33.1097C58.9275 33.2564 58.9263 33.4933 59.2179 33.6401C59.5108 33.7863 59.9849 33.7868 60.279 33.6401C60.5724 33.4938 60.5742 33.2564 60.2819 33.1097C59.9903 32.9634 59.5155 32.9634 59.2215 33.1097Z" fill="#860211"/>
<path fill-rule="evenodd" clip-rule="evenodd" d="M67.0036 21.3804V71.3804H67.0085C67.0116 71.5049 67.0827 71.6288 67.2243 71.7241C67.5164 71.9191 67.9896 71.9198 68.2829 71.7241C68.4398 71.6196 68.5103 71.4803 68.4997 71.3433V21.3804H67.0036Z" fill="#D2051E"/>
<path d="M67.2215 21.1097C66.9275 21.2564 66.9263 21.4933 67.2179 21.6401C67.5108 21.7863 67.9849 21.7868 68.279 21.6401C68.5724 21.4938 68.5742 21.2564 68.2819 21.1097C67.9903 20.9634 67.5155 20.9634 67.2215 21.1097Z" fill="#860211"/>
<path fill-rule="evenodd" clip-rule="evenodd" d="M75.0028 25.4136V79.77H75.0077C75.0108 79.9054 75.0818 80.0404 75.2235 80.144C75.5156 80.3559 75.9888 80.3566 76.2821 80.144C76.4392 80.0303 76.5098 79.8782 76.4989 79.729V25.4136H75.0028Z" fill="#D2051E"/>
<path d="M75.2215 25.1097C74.9275 25.2564 74.9263 25.4933 75.2179 25.6401C75.5108 25.7863 75.9849 25.7868 76.279 25.6401C76.5724 25.4938 76.5742 25.2564 76.2819 25.1097C75.9903 24.9634 75.5155 24.9634 75.2215 25.1097Z" fill="#860211"/>
<path fill-rule="evenodd" clip-rule="evenodd" d="M68.0033 28.8492V83.2057H68.0082C68.0113 83.3411 68.0823 83.4761 68.224 83.5797C68.5161 83.7917 68.9893 83.7923 69.2826 83.5797C69.4397 83.4659 69.5103 83.3139 69.4994 83.1647V28.8492H68.0033Z" fill="#D2051E"/>
<path d="M68.222 28.5453C67.928 28.6921 67.9268 28.929 68.2184 29.0757C68.5113 29.222 68.9854 29.2225 69.2794 29.0757C69.5729 28.9295 69.5747 28.6921 69.2824 28.5453C68.9908 28.3991 68.516 28.3991 68.222 28.5453Z" fill="#860211"/>
<path opacity="0.6" d="M108 80.0189L107.999 54.825L60 82.5383V107.732" fill="#A0998B"/>
<path opacity="0.6" d="M12.0019 54.825L60.0005 82.5386L60 107.732L12 80.0196" fill="#B8B2A8"/>
<path opacity="0.6" d="M60 67.4217L38.1818 54.825H12L60 82.5378L108 54.825H81.8182L60 67.4217Z" fill="#CCC6BD"/>
<path opacity="0.75" d="M38 24L59.8182 12L82 24L60 37" fill="#CCC6BD"/>
<path opacity="0.6" d="M82 24L60 36.8143V67.4366L82 55" fill="#726658"/>
<path opacity="0.6" d="M38 24L59.9998 36.8206L60 67.4243L38.1816 54.7239" fill="#9B8579"/>
</svg>
