<svg width="128" height="128" viewBox="0 0 128 128" fill="none" xmlns="http://www.w3.org/2000/svg">
<path d="M51.9868 39.9395L14.5749 61.6815L11.0002 59.6126L48.4121 37.8828L51.9868 39.9395Z" fill="#686468"/>
<path d="M55.0059 36.2427L53.1723 41.2113L14.6851 63.0083L17.6062 57.9724L55.0059 36.2427Z" fill="#524F53"/>
<path d="M67.7808 49.0684L67.7685 50.3048L30.3689 72.0346V70.8104L67.7808 49.0684Z" fill="#757275"/>
<path d="M67.7808 49.0684L30.3689 70.8104L26.7942 68.7415L64.2061 47.0117L67.7808 49.0684Z" fill="#686468"/>
<path d="M61.541 39.7373L64.3052 47.0654L26.8933 68.7952L24.1413 61.4671L61.541 39.7373Z" fill="#524F53"/>
<path d="M61.541 39.7375L24.2522 61.4029L19.8214 58.8519L17.6061 57.5764L54.8949 35.9019L57.1103 37.1804L61.541 39.7375Z" fill="#827E82"/>
<path d="M68.6284 49.5557L31.2165 71.2977L27.6418 69.2288L65.0537 47.499L68.6284 49.5557Z" fill="#686468"/>
<path d="M71.6475 45.8589L69.8139 50.8275L31.3267 72.6245L34.2478 67.5886L71.6475 45.8589Z" fill="#524F53"/>
<path d="M84.4224 58.6846L84.4101 59.921L47.0105 81.6508V80.4266L84.4224 58.6846Z" fill="#757275"/>
<path d="M84.4224 58.6846L47.0105 80.4266L43.4358 78.3577L80.8477 56.6279L84.4224 58.6846Z" fill="#686468"/>
<path d="M78.1826 49.3535L80.9468 56.6816L43.5349 78.4114L40.7829 71.0833L78.1826 49.3535Z" fill="#524F53"/>
<path d="M78.1826 49.3538L40.8938 71.0191L36.463 68.4681L34.2477 67.1926L71.5365 45.5181L73.7519 46.7966L78.1826 49.3538Z" fill="#827E82"/>
<path d="M87.769 55.2046L85.9355 60.1732L47.4483 81.9702L50.3694 76.9343L87.769 55.2046Z" fill="#524F53"/>
<path d="M100.543 68.0303L100.531 69.2667L63.1316 90.9965V89.7723L100.543 68.0303Z" fill="#757275"/>
<path d="M100.543 68.0303L63.5676 90.0318L59.5569 87.7034L96.9688 65.9736L100.543 68.0303Z" fill="#686468"/>
<path d="M94.3042 58.6992L97.0684 66.0273L59.6565 87.7571L56.9045 80.429L94.3042 58.6992Z" fill="#524F53"/>
<path d="M94.3042 58.6995L57.0153 80.3648L52.5846 77.8138L50.3693 76.5383L87.6581 54.8638L89.8735 56.1423L94.3042 58.6995Z" fill="#827E82"/>
<path d="M104.226 64.7129L102.392 69.6815L63.9048 91.4785L66.8259 86.4426L104.226 64.7129Z" fill="#524F53"/>
<path d="M17.6471 57.6035L24.2523 61.4027L26.8935 68.7952L27.6414 69.2289L31.0266 71.1336L34.2884 67.2201L40.8937 71.0193L43.5349 78.4118L45.5352 79.5717L47.1482 80.4791L50.4101 76.5656L57.0154 80.3649L59.6565 87.7574L60.2195 88.0838L63.6046 89.9872L66.8666 86.0736L73.4719 89.8729L76.113 97.2654L79.5881 99.2804V100.505L75.1478 97.9809L72.3297 90.6611L68.1811 88.2892L67.201 87.7288L64.6597 90.6822L63.9047 91.4784L60.2196 89.3646L60.2195 89.3415L58.6913 88.4729L55.8733 81.1531L51.7246 78.7812L50.7446 78.2209L48.2032 81.1742L47.4482 81.9704L43.7631 79.8566L43.7629 79.8055L42.5697 79.1273L39.7516 71.8075L35.6029 69.4356L34.6226 68.8751L32.0815 71.8286L31.3265 72.6248L27.6414 70.511L27.6413 70.4844L25.9283 69.5108L23.1102 62.191L18.9615 59.8191L17.9813 59.2586L15.4401 62.2121L14.6851 63.0082L11 60.8945V59.6124L14.3851 61.5171L17.6471 57.6035Z" fill="#979598"/>
<path d="M117 77.5386L116.988 78.775L79.5881 100.505V99.2806L117 77.5386Z" fill="#524F53"/>
<path d="M117 77.5386L79.5881 99.2806L76.0134 97.2117L113.425 75.4819L117 77.5386Z" fill="#757275"/>
<path d="M110.761 68.2075L113.525 75.5356L76.113 97.2654L73.3611 89.9373L110.761 68.2075Z" fill="#524F53"/>
<path d="M110.761 68.2073L73.4719 89.8727L69.0412 87.3216L66.8258 86.0461L104.115 64.3716L106.33 65.6501L110.761 68.2073Z" fill="#827E82"/>
<path fill-rule="evenodd" clip-rule="evenodd" d="M51.2057 28L92.3197 51.751L92.2783 51.7747L112.02 63.1793L84.0958 79.3098L42.9612 55.5238L42.993 55.5055L23.2612 44.0956L51.2057 28Z" fill="#CCC7BE"/>
<path fill-rule="evenodd" clip-rule="evenodd" d="M23.2573 44.1001L64.4162 67.9519L64.4162 67.9738L84.1196 79.3264V87.6884L80.6143 85.6547L74.0547 81.8708L72.6172 82.6405L68.9456 84.8205L66.656 83.5181L64.0713 76.1118L57.5536 72.3522L52.4007 75.3534L50.5683 74.2586L47.9849 66.7787L41.4451 63.0062L36.3253 65.9782L34.0266 64.6421L31.4419 57.2358L23.2573 52.5145V44.1001Z" fill="#B8B2A8"/>
<path fill-rule="evenodd" clip-rule="evenodd" d="M112.019 71.5018L111.13 72.0338L109.844 72.7758L104.699 75.7436L84.1194 87.615V79.3097L104.699 67.4255L109.844 64.4544L111.13 63.7116L112.019 63.1792V71.5018Z" fill="#A0998B"/>
<path fill-rule="evenodd" clip-rule="evenodd" d="M50.5391 75.4724C50.5391 75.5741 50.6126 75.6714 50.7736 75.7479L50.7968 75.7594C50.953 75.8316 51.1551 75.8679 51.3573 75.8713C51.3918 75.8729 51.4433 75.8731 51.5118 75.8718L52.2731 75.4353L52.2716 69.6807H50.5391V75.4724Z" fill="#D0021B"/>
<path fill-rule="evenodd" clip-rule="evenodd" d="M52.6994 68.8406L52.6983 69.4627C52.6973 69.6686 52.572 69.8745 52.3225 70.0314C51.8193 70.3486 51.003 70.3497 50.4957 70.0325C50.2421 69.8734 50.1147 69.6642 50.1147 69.4561L50.1168 68.7124C50.1158 68.9205 50.2431 69.1297 50.4978 69.2889C51.004 69.606 51.8204 69.6049 52.3246 69.2878C52.5741 69.1308 52.6994 68.925 52.6994 68.7191" fill="#860211"/>
<path fill-rule="evenodd" clip-rule="evenodd" d="M52.3178 68.1875C52.8245 68.4966 52.8265 68.9955 52.324 69.3046C51.8194 69.6126 51.0024 69.6137 50.4958 69.3046C49.9901 68.9966 49.9871 68.4966 50.4906 68.1875C50.9932 67.8795 51.8112 67.8795 52.3178 68.1875Z" fill="#D0021B"/>
</svg>