<svg width="80" height="80" viewBox="0 0 80 80" fill="none" xmlns="http://www.w3.org/2000/svg">
<path d="M64.375 55.5625L55.3125 50.3125L29.375 44.375L56.3313 60.225L64.375 55.5625Z" fill="#BBBDBF"/>
<path d="M54.6281 62.0533V43.6882L28.1367 28.0938V53.1594L54.6281 62.0533Z" fill="#929497"/>
<path d="M46.8047 47.5647V49.1524L64.6049 38.633V37.168L46.8047 47.5647Z" fill="#58595B"/>
<path d="M46.8087 47.57V49.1374L20.457 34.0662V32.5625L46.8087 47.57Z" fill="#808184"/>
<path d="M54.6271 61.2056L28.1377 45.4844L20.1836 50.0634L46.848 65.7145L54.6271 61.2056Z" fill="#BBBDBF"/>
<path d="M46.8453 65.7172V67.2568L20.1836 51.5233V50.0625L46.8453 65.7172Z" fill="#808184"/>
<path d="M46.8438 65.7203V67.2637L64.3743 57.125V55.5625L46.8438 65.7203Z" fill="#58595B"/>
<path d="M54.625 43.2904L56.3313 42.8672V60.8389L54.625 61.6366V43.2904Z" fill="#58595B"/>
<path d="M42.9079 14.9683L25.8951 24.8725L24.2617 23.915L41.2745 14.0312L42.9079 14.9683Z" fill="#7D7C7E"/>
<path d="M44.2833 13.293L43.4572 15.5442L25.9375 25.4672L27.2705 23.1784L44.2833 13.293Z" fill="#534F53"/>
<path d="M50.098 19.1289V19.6921L33.0664 29.5759V29.0144L50.098 19.1289Z" fill="#757275"/>
<path d="M50.0976 19.1262L33.066 29.0117L31.4531 28.073L48.4659 18.1875L50.0976 19.1262Z" fill="#7D7C7E"/>
<path d="M47.266 14.8867L48.5221 18.2063L31.4905 28.0918L30.2344 24.7722L47.266 14.8867Z" fill="#595555"/>
<path d="M47.264 14.8881L30.2888 24.736L28.2816 23.5737L27.2695 22.9917L44.226 13.125L45.2381 13.707L47.264 14.8881Z" fill="#9E9D9D"/>
<path d="M50.4875 19.3379L33.4559 29.2421L31.8242 28.3034L48.8558 18.418L50.4875 19.3379Z" fill="#7D7C7E"/>
<path d="M51.8597 17.6602L51.0166 19.9284L33.5156 29.8327L34.8281 27.5439L51.8597 17.6602Z" fill="#534F53"/>
<path d="M57.6573 23.4961V24.0576L40.6445 33.9431V33.3986L57.6573 23.4961Z" fill="#757275"/>
<path d="M57.6562 23.4973L40.6434 33.3998L39.0117 32.4441L56.0433 22.5586L57.6562 23.4973Z" fill="#7D7C7E"/>
<path d="M54.8253 19.2578L56.0815 22.5962L39.0687 32.4817L37.8125 29.1433L54.8253 19.2578Z" fill="#595555"/>
<path d="M54.8243 19.256L37.8678 29.1039L35.8419 27.9587L34.8281 27.3767L51.8034 17.5117L52.8172 18.092L54.8243 19.256Z" fill="#9E9D9D"/>
<path d="M59.1934 21.9062L58.3486 24.1762L40.8477 34.0992L42.1806 31.8105L59.1934 21.9062Z" fill="#534F53"/>
<path d="M65.0082 27.7617L64.9894 28.3249L47.9766 38.2087V37.6472L65.0082 27.7617Z" fill="#757275"/>
<path d="M65.007 27.759L48.1819 37.7571L46.3438 36.7058L63.3753 26.8203L65.007 27.759Z" fill="#7D7C7E"/>
<path d="M62.1574 23.5039L63.4152 26.8423L46.4024 36.7278L45.1445 33.3894L62.1574 23.5039Z" fill="#595555"/>
<path d="M62.1554 23.5021L45.1989 33.3688L43.173 32.2065L42.1797 31.6245L59.1362 21.7578L60.1483 22.3398L62.1554 23.5021Z" fill="#9E9D9D"/>
<path d="M66.6878 26.2422L65.8447 28.4934L48.3438 38.4164L49.675 36.1276L66.6878 26.2422Z" fill="#534F53"/>
<path d="M27.3173 23.0352L30.3178 24.7607L31.5176 28.1178L31.8555 28.3244L33.3933 29.188L34.8748 27.4061L37.8752 29.1316L39.0751 32.4888L39.995 33.0145L40.7272 33.4275L42.2087 31.6457L45.2091 33.3712L46.409 36.7284L46.6718 36.8786L48.2096 37.7422L49.691 35.9603L52.6915 37.6858L53.8913 41.043L55.4735 41.9664V42.5296L53.4407 41.3809L52.1658 38.0426L50.2713 36.9554L49.8207 36.6925L48.6584 38.0426L48.3205 38.3993L46.6513 37.4435V37.4247L45.9567 37.0305L44.6817 33.6921L42.7872 32.6049L42.3367 32.342L41.1744 33.6921L40.8364 34.0488L39.1672 33.093V33.0742L38.6228 32.7738L37.3479 29.4354L35.4534 28.3483L35.0403 28.1793L33.878 29.5293L33.5401 29.886L31.8709 28.9302V28.9115L31.0824 28.4609L29.7887 25.1413L27.913 24.0541L27.4624 23.7912L26.3001 25.1413L25.9622 25.498L24.293 24.5422V23.9602L25.8307 24.8238L27.3122 23.042L27.3173 23.0352Z" fill="#686867"/>
<path d="M72.5052 32.0742L72.4933 32.704L55.4805 42.5834V41.9563L72.5052 32.0742Z" fill="#595555"/>
<path d="M72.5038 32.0737L55.4791 41.9626L53.8594 41.0205L70.8722 31.1367L72.5038 32.0737Z" fill="#9E9D9D"/>
<path d="M69.6535 27.8359L70.9096 31.1573L53.8968 41.041L52.6406 37.7214L69.6535 27.8359Z" fill="#595555"/>
<path d="M69.6532 27.838L52.6967 37.686L50.6708 36.5237L49.6758 35.9417L66.6323 26.0938L67.6461 26.6757L69.6532 27.838Z" fill="#9E9D9D"/>
<path fill-rule="evenodd" clip-rule="evenodd" d="M33.8984 27.3154C33.8984 27.3718 33.9548 27.4469 34.0486 27.4844H34.0674C34.1613 27.522 34.2927 27.5595 34.4241 27.5595H34.518L35.0061 27.2779V23.6016H33.9001V27.3154H33.8984Z" fill="#A7081A"/>
<path fill-rule="evenodd" clip-rule="evenodd" d="M34.8475 23.3771C35.0642 23.5204 35.0642 23.744 34.8475 23.8737C34.6307 24.0171 34.2723 24.0171 34.0538 23.8737C33.8354 23.7304 33.8371 23.5068 34.0538 23.3771C34.2706 23.2337 34.629 23.2337 34.8475 23.3771Z" fill="#CE2027"/>
<path fill-rule="evenodd" clip-rule="evenodd" d="M41.2773 31.5342C41.2773 31.5905 41.3337 31.6656 41.4275 31.7032H41.4463C41.5402 31.7407 41.6716 31.7783 41.803 31.7783H41.8969L42.385 31.4966V27.8203H41.279V31.5342H41.2773Z" fill="#A7081A"/>
<path fill-rule="evenodd" clip-rule="evenodd" d="M42.2264 27.5958C42.4431 27.7392 42.4431 27.9628 42.2264 28.0925C42.0096 28.2358 41.6512 28.2358 41.4327 28.0925C41.2143 27.9491 41.216 27.7255 41.4327 27.5958C41.6495 27.4524 42.0079 27.4524 42.2264 27.5958Z" fill="#CE2027"/>
<path fill-rule="evenodd" clip-rule="evenodd" d="M48.6562 35.9326C48.6562 35.9889 48.7126 36.064 48.8064 36.1016H48.8252C48.9191 36.1391 49.0505 36.1767 49.1819 36.1767H49.2758L49.7639 35.8951V32.2188H48.658V35.9326H48.6562Z" fill="#A7081A"/>
<path fill-rule="evenodd" clip-rule="evenodd" d="M49.6053 31.9942C49.822 32.1376 49.822 32.3612 49.6053 32.4909C49.3885 32.6343 49.0301 32.6343 48.8116 32.4909C48.5932 32.3475 48.5949 32.124 48.8116 31.9942C49.0284 31.8509 49.3868 31.8509 49.6053 31.9942Z" fill="#CE2027"/>
<path d="M26.1445 24.7026L9.13165 34.6069L7.5 33.6511L24.5128 23.7656L26.1445 24.7026Z" fill="#7D7C7E"/>
<path d="M27.5199 23.0273L26.6955 25.2785L9.17578 35.2015L10.507 32.9128L27.5199 23.0273Z" fill="#534F53"/>
<path d="M33.3363 28.8633V29.4265L16.3047 39.312V38.7487L33.3363 28.8633Z" fill="#757275"/>
<path d="M33.3359 28.8628L16.3043 38.7482L14.6914 37.8112L31.7042 27.9258L33.3359 28.8628Z" fill="#7D7C7E"/>
<path d="M30.5043 24.6211L31.7604 27.9424L14.7288 37.8262L13.4727 34.5066L30.5043 24.6211Z" fill="#595555"/>
<path d="M30.504 24.6224L13.527 34.4704L11.5216 33.3081L10.5078 32.7261L27.4643 22.8594L28.4781 23.4414L30.504 24.6224Z" fill="#9E9D9D"/>
<path d="M33.7257 29.0706L16.6941 38.9748L15.0625 38.0361L32.0941 28.1523L33.7257 29.0706Z" fill="#7D7C7E"/>
<path d="M35.0997 27.3945L34.2549 29.6645L16.7539 39.567L18.0681 37.28L35.0997 27.3945Z" fill="#534F53"/>
<path d="M40.8956 33.2305V33.7937L23.8828 43.6774V43.1347L40.8956 33.2305Z" fill="#757275"/>
<path d="M40.8945 33.2317L23.8816 43.1359L22.25 42.1784L39.2816 32.293L40.8945 33.2317Z" fill="#7D7C7E"/>
<path d="M38.0636 28.9922L39.3215 32.3306L22.3087 42.216L21.0508 38.8776L38.0636 28.9922Z" fill="#595555"/>
<path d="M38.0609 28.9904L21.1044 38.8383L19.0785 37.6931L18.0664 37.1128L35.0417 27.2461L36.0538 27.8281L38.0609 28.9904Z" fill="#9E9D9D"/>
<path d="M42.43 31.6406L41.5869 33.9106L24.0859 43.8336L25.4172 41.5449L42.43 31.6406Z" fill="#534F53"/>
<path d="M48.2464 37.4961L48.2277 38.0593L31.2148 47.9448V47.3816L48.2464 37.4961Z" fill="#757275"/>
<path d="M48.2453 37.4956L31.4202 47.4937L29.582 46.4423L46.6136 36.5586L48.2453 37.4956Z" fill="#7D7C7E"/>
<path d="M45.3956 33.2383L46.6518 36.5784L29.639 46.4621L28.3828 43.1237L45.3956 33.2383Z" fill="#595555"/>
<path d="M45.3954 33.2365L28.4389 43.1032L26.413 41.9409L25.418 41.3589L42.3745 31.4922L43.3883 32.0742L45.3954 33.2365Z" fill="#9E9D9D"/>
<path d="M49.9222 35.9766L49.0774 38.2278L31.5781 48.1508L32.9094 45.862L49.9222 35.9766Z" fill="#534F53"/>
<path d="M10.5522 32.7695L13.5526 34.495L14.7525 37.8522L15.0904 38.0587L16.6282 38.9223L18.1096 37.1405L21.1101 38.866L22.3099 42.2232L23.2299 42.7489L23.9621 43.1619L25.4435 41.3801L28.444 43.1056L29.6438 46.4627L29.9067 46.6129L31.4444 47.4765L32.9259 45.6947L35.9263 47.4202L37.1262 50.7774L38.7083 51.7007V52.264L36.6756 51.1153L35.4007 47.7769L33.5062 46.6897L33.0556 46.4269L31.8933 47.7769L31.5554 48.1336L29.8862 47.1779V47.1591L29.1915 46.7648L27.9166 43.4264L26.0221 42.3392L25.5715 42.0764L24.4092 43.4264L24.0713 43.7831L22.4021 42.8274V42.8086L21.8577 42.5082L20.5827 39.1698L18.6882 38.0826L18.2752 37.9137L17.1129 39.2637L16.775 39.6204L15.1058 38.6646V38.6458L14.3173 38.1953L13.0236 34.8757L11.1478 33.7885L10.6973 33.5256L9.53497 34.8757L9.19703 35.2324L7.53125 34.2698V33.6878L9.06903 34.5514L10.5505 32.7695H10.5522Z" fill="#686867"/>
<path d="M55.7396 41.8086L55.7277 42.4384L38.7148 52.2607V51.6906L55.7396 41.8086Z" fill="#595555"/>
<path d="M55.7382 41.812L38.7135 51.7009L37.0938 50.7605L54.1066 40.875L55.7382 41.812Z" fill="#9E9D9D"/>
<path d="M52.8878 37.5742L54.1457 40.8938L37.1329 50.7793L35.875 47.458L52.8878 37.5742Z" fill="#595555"/>
<path d="M52.8859 37.5724L35.9294 47.4186L33.9035 46.2563L32.9102 45.6743L49.8667 35.8281L50.8788 36.4084L52.8859 37.5724Z" fill="#9E9D9D"/>
</svg>