<svg width="128" height="128" viewBox="0 0 128 128" fill="none" xmlns="http://www.w3.org/2000/svg">
<path d="M113.997 44.1045V67.2616L57.5628 105.23V79.4416L113.997 44.1045Z" fill="#7E7B78" fill-opacity="0.6"/>
<path d="M14.0002 52.439L14 77.5811L57.6828 105.155V79.3666L14.0002 52.439Z" fill="#898883" fill-opacity="0.6"/>
<path d="M49.7877 84.0624L49.7893 85.1446C49.791 85.5027 49.9951 85.8608 50.4016 86.1338C51.2212 86.6855 52.5511 86.6874 53.3774 86.1357C53.7906 85.8589 53.998 85.495 53.998 85.133L53.9947 83.8394C53.9964 84.2014 53.7889 84.5653 53.3741 84.8421C52.5494 85.3939 51.2196 85.3919 50.3982 84.8402C49.9917 84.5672 49.7877 84.2091 49.7877 83.851" fill="#747274"/>
<path d="M50.4092 82.9262C49.5838 83.4639 49.5805 84.3317 50.3991 84.8694C51.2211 85.4052 52.552 85.4071 53.3774 84.8694C54.201 84.3336 54.206 83.4639 53.3857 82.9262C52.5671 82.3905 51.2345 82.3905 50.4092 82.9262Z" fill="#9B9995"/>
<rect x="51.6963" y="60.3623" width="2.13809" height="25.6571" rx="1.06904" fill="#524F53"/>
<path d="M68.7369 72.4838L68.7385 73.566C68.7402 73.9241 68.9443 74.2822 69.3508 74.5552C70.1704 75.1069 71.5003 75.1088 72.3267 74.5571C72.7398 74.2803 72.9473 73.9163 72.9473 73.5543L72.9439 72.2607C72.9456 72.6227 72.7382 72.9867 72.3233 73.2635C71.4986 73.8152 70.1688 73.8133 69.3474 73.2616C68.941 72.9886 68.7369 72.6305 68.7369 72.2724" fill="#747274"/>
<path d="M69.3584 71.3481C68.5331 71.8858 68.5297 72.7536 69.3484 73.2913C70.1703 73.827 71.5012 73.8289 72.3266 73.2913C73.1502 72.7555 73.1553 71.8858 72.335 71.3481C71.5163 70.8123 70.1837 70.8123 69.3584 71.3481Z" fill="#9B9995"/>
<rect x="70.9399" y="48.603" width="2.13809" height="25.6571" rx="1.06904" fill="#524F53"/>
<path d="M89.7881 56.6947L89.7898 57.7769C89.7915 58.135 89.9956 58.4932 90.4021 58.7661C91.2217 59.3178 92.5516 59.3198 93.3779 58.7681C93.7911 58.4912 93.9985 58.1273 93.9985 57.7653L93.9952 56.4717C93.9969 56.8337 93.7894 57.1976 93.3746 57.4745C92.5499 58.0262 91.22 58.0242 90.3987 57.4725C89.9922 57.1996 89.7881 56.8414 89.7881 56.4833" fill="#747274"/>
<path d="M90.4097 55.5591C89.5843 56.0967 89.581 56.9645 90.3996 57.5022C91.2216 58.038 92.5525 58.0399 93.3779 57.5022C94.2015 56.9664 94.2065 56.0967 93.3862 55.5591C92.5676 55.0233 91.235 55.0233 90.4097 55.5591Z" fill="#9B9995"/>
<rect x="91.2515" y="35.7744" width="2.13809" height="25.6571" rx="1.06904" fill="#757275"/>
<path d="M96.1012 38.4364L53.1484 66.7575L51.1641 66.7766L49.5595 65.7076L47.4214 63.312L90.4493 35.491L96.1012 38.4364Z" fill="#979598"/>
<path d="M92.9081 38.2458L49.2654 65.4485L47.4214 63.5694L90.4493 37.0093L92.9081 38.2458Z" fill="#979598"/>
<path d="M92.9081 36.1076L49.2654 63.3104L47.4214 62.0739L90.4493 34.8711L92.9081 36.1076Z" fill="#757275"/>
<path d="M90.4482 34.8727V33.6362L92.907 34.8727V36.1092L90.4482 34.8727Z" fill="#757275"/>
<path d="M92.9056 34.8727L49.263 62.0755L47.4189 60.839L90.4469 33.6362L92.9056 34.8727Z" fill="#524F53"/>
<path d="M50.6261 67.3113L48.488 66.2422L47.4189 63.5696L47.419 62.0757L48.488 63.5696L49.0225 65.1732L51.1606 66.2422L52.2296 65.7077L53.146 65.6279V66.7568L50.6261 67.3113Z" fill="#757275"/>
<path d="M53.1468 65.7974H52.2301V65.1734L51.1089 64.3574L51.1092 63.312L53.1468 64.3574V65.7974Z" fill="#757275"/>
<path d="M93.7144 37.4769L94.1375 35.4912L96.5963 36.7277L96.1006 38.4369L93.7144 37.4769Z" fill="#979598"/>
<path d="M96.5956 36.7277L53.1465 64.3579L51.1089 63.3122L94.1368 35.4912L96.5956 36.7277Z" fill="#524F53"/>
<path d="M47.4189 63.5695L47.419 60.8384L49.2632 62.0749V62.8614L48.4271 62.5004L48.4845 63.5076L48.488 63.5695H47.4189Z" fill="#757275"/>
<path d="M14 52.4146L73.9981 22L113.997 44.1045L57.6828 79.3666L14 52.4146Z" fill="#C3C0B7" fill-opacity="0.5"/>
<path d="M43.4727 44.6309L71.8928 29.8945L108.734 49.8394L79.6577 66.8105L43.4727 44.6309Z" fill="#9F9E9E"/>
<path d="M80.316 67.2617V71.9984L43.4751 49.0593V44.6309L80.316 67.2617Z" fill="#686766"/>
<path d="M67.0007 49.3138L66.9989 50.5019C66.997 50.8951 66.773 51.2883 66.3267 51.588C65.4267 52.1938 63.9666 52.1959 63.0593 51.5901C62.6057 51.2862 62.3779 50.8866 62.3779 50.4891L62.3816 49.0688C62.3798 49.4663 62.6075 49.8659 63.063 50.1698C63.9684 50.7756 65.4286 50.7735 66.3304 50.1677C66.7767 49.868 67.0007 49.4748 67.0007 49.0816" fill="#860211"/>
<path d="M66.3183 48.0662C67.2245 48.6565 67.2282 49.6093 66.3294 50.1997C65.4269 50.7879 63.9656 50.79 63.0594 50.1997C62.1551 49.6114 62.1496 48.6565 63.0502 48.0662C63.949 47.4779 65.4122 47.4779 66.3183 48.0662Z" fill="#D0021B"/>
<path d="M82.9665 40.5838L82.9647 41.7719C82.9629 42.1651 82.7388 42.5583 82.2925 42.858C81.3926 43.4638 79.9324 43.4659 79.0251 42.8602C78.5715 42.5562 78.3438 42.1566 78.3438 41.7592L78.3474 40.3389C78.3456 40.7363 78.5733 41.1359 79.0288 41.4399C79.9343 42.0456 81.3944 42.0435 82.2962 41.4377C82.7425 41.138 82.9665 40.7448 82.9665 40.3516" fill="#860211"/>
<path d="M82.2841 39.3362C83.1903 39.9265 83.194 40.8794 82.2952 41.4697C81.3927 42.0579 79.9314 42.06 79.0252 41.4697C78.1209 40.8814 78.1154 39.9265 79.016 39.3362C79.9149 38.748 81.378 38.748 82.2841 39.3362Z" fill="#D0021B"/>
<path d="M112.582 46.4644L81.6294 65.1726V73.1905L112.582 54.0239V46.4644Z" fill="#4E4747"/>
<path d="M79.4912 63.5693L81.6293 65.1728L112.632 46.4646L110.493 45.3955L79.4912 63.5693Z" fill="#595454"/>
<path d="M79.4912 71.5872V63.5693L81.6293 65.1729V73.1478L79.4912 71.5872Z" fill="#686766"/>
</svg>