<svg width="80" height="80" viewBox="0 0 80 80" fill="none" xmlns="http://www.w3.org/2000/svg">
<path fill-rule="evenodd" clip-rule="evenodd" d="M9.33691 58.0768L33.7442 41.8513L58.0984 58.0768L33.7033 74.3263L9.33691 58.0768Z" fill="#CCC7BE"/>
<path fill-rule="evenodd" clip-rule="evenodd" d="M9.33691 58.0888V63.7802L33.7177 80V74.3263L9.33691 58.0888Z" fill="#B8B2A8"/>
<path fill-rule="evenodd" clip-rule="evenodd" d="M58.0532 58.0888V63.7802L33.6725 80V74.3263L58.0532 58.0888Z" fill="#A0998B"/>
<path fill-rule="evenodd" clip-rule="evenodd" d="M15.1599 48.9003L39.5672 32.6748L63.9214 48.9003L39.5263 65.1497L15.1599 48.9003Z" fill="#CCC7BE"/>
<path fill-rule="evenodd" clip-rule="evenodd" d="M15.1599 48.9121V54.6035L39.5407 70.8233V65.1496L15.1599 48.9121Z" fill="#B8B2A8"/>
<path fill-rule="evenodd" clip-rule="evenodd" d="M63.877 48.9121V54.6035L39.4962 70.8233V65.1496L63.877 48.9121Z" fill="#A0998B"/>
<path fill-rule="evenodd" clip-rule="evenodd" d="M21.1677 39.276L45.575 23.0505L69.9292 39.276L45.5341 55.5254L21.1677 39.276Z" fill="#CCC7BE"/>
<path fill-rule="evenodd" clip-rule="evenodd" d="M21.1677 39.2881V44.9795L45.5485 61.1993V55.5256L21.1677 39.2881Z" fill="#B8B2A8"/>
<path fill-rule="evenodd" clip-rule="evenodd" d="M69.8846 39.2881V44.9795L45.5039 61.1993V55.5256L69.8846 39.2881Z" fill="#A0998B"/>
<path fill-rule="evenodd" clip-rule="evenodd" d="M26.9928 29.8755L39.1965 21.7627L63.5567 38.0002L51.3592 46.1249L26.9928 29.8755Z" fill="#CCC7BE"/>
<path fill-rule="evenodd" clip-rule="evenodd" d="M26.9928 29.8874V35.5788L51.3735 51.7986V46.1249L26.9928 29.8874Z" fill="#B8B2A8"/>
<path fill-rule="evenodd" clip-rule="evenodd" d="M63.5178 43.6886L51.3275 51.7985V46.1248L63.5178 38.006V43.6886Z" fill="#A0998B"/>
<path fill-rule="evenodd" clip-rule="evenodd" d="M32.6271 20.6987L44.8307 12.5859L69.191 28.8234L56.9934 36.9481L32.6271 20.6987Z" fill="#CCC7BE"/>
<path fill-rule="evenodd" clip-rule="evenodd" d="M32.6271 20.7107V26.4021L57.0078 42.6219V36.9482L32.6271 20.7107Z" fill="#B8B2A8"/>
<path fill-rule="evenodd" clip-rule="evenodd" d="M69.1528 34.5122L56.9625 42.6221V36.9483L69.1528 28.8296V34.5122Z" fill="#A0998B"/>
<path fill-rule="evenodd" clip-rule="evenodd" d="M37.0847 12.1935L43.1865 8.13714L46.2375 6.10895L70.5992 22.3494L67.5499 24.3806L61.4511 28.4429L37.0847 12.1935Z" fill="#CCC7BE"/>
<path fill-rule="evenodd" clip-rule="evenodd" d="M37.0845 12.2054V17.8968L61.4652 34.1167V28.4429L37.0845 12.2054Z" fill="#B8B2A8"/>
<path fill-rule="evenodd" clip-rule="evenodd" d="M70.5625 28.0342L67.5149 30.0617L61.4197 34.1167V28.4429L67.5149 24.3836L70.5625 22.3539V28.0342Z" fill="#A0998B"/>
<path fill-rule="evenodd" clip-rule="evenodd" d="M70.663 55.5253L33.6725 80L33.7889 74.3263L54.712 61.3238C57.3109 50.4382 59.5486 42.6657 61.4251 38.0061C63.3016 33.3465 66.3492 28.1291 70.5679 22.3539L70.663 55.5253Z" fill="#A0998B"/>
<path fill-rule="evenodd" clip-rule="evenodd" d="M32.6277 50.3566H35.1506V71.8434C34.5909 72.2965 34.1704 72.5231 33.8892 72.5231C33.6079 72.5231 33.1874 72.2965 32.6277 71.8434V50.3566Z" fill="#524F53"/>
<path fill-rule="evenodd" clip-rule="evenodd" d="M60.3743 4.47321H62.8972V25.96C62.3375 26.4132 61.917 26.6397 61.6358 26.6397C61.3545 26.6397 60.934 26.4132 60.3743 25.96V4.47321Z" fill="#524F53"/>
<path fill-rule="evenodd" clip-rule="evenodd" d="M60.1915 3.93096L63.7112 1.93584L66.6417 3.28148L62.8221 5.51895L30.3309 59.474L27.8974 57.6472L60.1915 3.93096Z" fill="#757275"/>
</svg>