<svg width="128" height="128" viewBox="0 0 128 128" fill="none" xmlns="http://www.w3.org/2000/svg">
<path d="M19 80.3571V65.5L46.3928 68.75L71 95.2143V110.071C67.4405 109.143 59.3928 105.429 57.5357 101.714C55.6786 98 48.0952 95.8333 44.5357 95.2143C42.2143 94.2857 36.4571 91.4071 32 87.3214C27.5429 83.2357 21.4762 80.9762 19 80.3571Z" fill="#A9A9A9"/>
<path d="M57.9995 43.2143V7L109.535 35.3214V72.4643L57.9995 43.2143Z" fill="#EAF0F1" fill-opacity="0.6" stroke="#979797"/>
<path d="M110 72.9286L58 43.2144C54.9047 45.6905 47.9714 50.6429 45 50.6429C41.2857 50.6429 33.3929 55.2858 32 58.0715C30.8857 60.3001 22.869 63.7977 19 65.5001C22.869 66.4286 27.5346 68.4633 32 72.9286C34.7857 75.7143 40.8214 79.9938 45 80.3572C48.5595 80.6667 54.75 82.6786 58 87.3215C60.9667 91.5597 67.4405 94.5953 71 95.2143L110 72.9286Z" fill="#D9D9D9"/>
<path d="M109.999 87.7858V72.9287L70.9995 95.2144V110.072L109.999 87.7858Z" fill="#979598"/>
<path d="M71 95.2142V57.1428L110 35.7856V72.4642L71 95.2142Z" fill="#EAF0F1" fill-opacity="0.6" stroke="#979797"/>
<path d="M71.4644 95.2143L110 72.4644" stroke="#D0021B" stroke-width="2"/>
<path d="M71 95.6786L110 72.4644" stroke="#524F53" stroke-width="3" stroke-dasharray="3 6"/>
</svg>