<svg width="24" height="24" viewBox="0 0 24 24" fill="none" xmlns="http://www.w3.org/2000/svg">
<path d="M23.5 22H20.5L19.75 20H14.9463L14.0947 22H11L16.3525 10.5H18.7529L23.5 22ZM17 7H14.4395C13.6854 8.13709 12.5134 9.85103 10.8291 12.1924C12.3467 13.4294 13.4931 14.2565 13.499 14.2607L12 17.1807C12 17.1807 10.863 16.2315 9.03613 14.6494C5.79208 19.0267 4.55078 20.2734 4.55078 20.2734L2 18.2734C2 18.2734 4.23615 15.8865 6.79883 12.6084C5.46099 11.3106 4.4313 10.1893 4.42969 10.1875L6.36719 8.17871C6.3782 8.18978 7.29176 9.10663 8.57129 10.2598C9.53009 8.94424 10.2736 7.84628 10.8232 7H1V4H8V1H11V4H17V7ZM16.2227 17H18.625L17.5 14L16.2227 17Z" fill="#524F53"/>
</svg>
