<svg width="24px" height="24px" viewBox="0 0 24 24" version="1.1" xmlns="http://www.w3.org/2000/svg" xmlns:xlink="http://www.w3.org/1999/xlink">
    
    <title>05 Icons / link_broken Copy</title>
    <desc>Created with Sketch.</desc>
    <g id="05-Icons-/-link_broken-Copy" stroke="none" stroke-width="1" fill="none" fill-rule="evenodd">
        <rect fill="#FFFFFF" opacity="0" x="0" y="0" width="24" height="24"/>
        <path d="M1.1133316,12.1177422 L2.52754516,9.66825247 L11.2208776,7.33888107 L13.6703673,8.75309463 L14.4468245,11.6508721 L12.5149728,12.1685102 L11.9973347,10.2366585 L10.7725899,9.52955177 L4.01110908,11.3412851 L3.3040023,12.56603 L3.82164039,14.4978816 L5.04638526,15.2049884 L7.94416274,14.4285313 L8.46180083,16.3603829 L4.59809752,17.3956591 L2.14860778,15.9814455 L1.1133316,12.1177422 Z M22.1521282,14.3672701 L20.1521282,16.3672701 L11.1521282,16.3672701 L9.15212825,14.3672701 L9.15212825,11.3672701 L11.1521282,11.3672701 L11.1521282,13.3672701 L12.1521282,14.3672701 L19.1521282,14.3672701 L20.1521282,13.3672701 L20.1521282,11.3672701 L19.1521282,10.3672701 L16.1521282,10.3672701 L16.1521282,8.36727008 L20.1521282,8.36727008 L22.1521282,10.3672701 L22.1521282,14.3672701 Z" id="Path-2" fill="#524F53" transform="translate(11.632730, 12.367270) rotate(-45.000000) translate(-11.632730, -12.367270)"/>
        <rect id="Rectangle" fill="#524F53" transform="translate(6.932013, 4.263420) rotate(-45.000000) translate(-6.932013, -4.263420)" x="5.93201279" y="2.2634202" width="2" height="4"/>
        <rect id="Rectangle" fill="#524F53" x="10" y="0.702746483" width="2" height="4"/>
        <rect id="Rectangle" fill="#524F53" transform="translate(4.741342, 7.868304) rotate(-75.000000) translate(-4.741342, -7.868304)" x="3.74134209" y="5.86830446" width="2" height="4"/>
    </g>
</svg>