<svg width="117" height="107" viewBox="0 0 117 107" fill="none" xmlns="http://www.w3.org/2000/svg">
<path fill-rule="evenodd" clip-rule="evenodd" d="M50.966 5.34835C71.9622 8.30149 86.5927 27.6891 83.6442 48.6517C82.6006 56.0714 79.4946 62.6939 74.9859 68.0231L85.9289 79.3952L79.2212 85.8295L68.1677 74.3428C60.4051 79.9625 50.5356 82.7021 40.2884 81.2609C19.2922 78.3077 4.66168 58.9202 7.6102 37.9575C9.41111 25.1538 17.3535 14.7239 28.0474 9.21751L35.6311 15.4279L30.2534 27.1578L47.736 33.6123L50.7819 45.528L52.9174 30.3455L38.2214 25.2818L44.6772 12.9544L38.464 5.633C42.4819 4.87345 46.6911 4.74708 50.966 5.34835Z" fill="#BAB9BA"/>
<path fill-rule="evenodd" clip-rule="evenodd" d="M49.2864 14.382C65.3275 16.6382 76.5024 31.4712 74.2461 47.5123C71.9899 63.5534 57.157 74.7283 41.1159 72.472C25.0748 70.2158 13.8999 55.3829 16.1562 39.3418C17.7516 27.9987 25.6356 19.089 35.7887 15.6407L35.9041 15.7355L30.6786 27.1059L48.0794 33.5539L51.0971 45.7497L53.2406 30.2793L38.5048 25.5597L44.4175 14.102C46.0197 14.0611 47.6468 14.1514 49.2864 14.382Z" fill="#DCDCDD"/>
<path fill-rule="evenodd" clip-rule="evenodd" d="M86.0974 76.5759L105.205 96.8219L96.3045 105.611L77.1968 85.3655L86.0974 76.5759Z" fill="#757275"/>
</svg>
