<svg width="128" height="128" viewBox="0 0 128 128" fill="none" xmlns="http://www.w3.org/2000/svg">
<path d="M60.9083 91.6042L104.499 65.8088L104.499 68.3982L62.0338 93.5722L60.9083 91.6042Z" fill="#860211"/>
<path d="M26.7121 55.9552L75.7789 26.9677L75.6399 29.6381L27.8375 57.9233L26.7121 55.9552Z" fill="#860211"/>
<path d="M57.0513 11L22 31.2836L59.6161 53.2934L95.0948 33.0098L57.0513 11Z" fill="#E6E2D7" fill-opacity="0.6"/>
<path fill-rule="evenodd" clip-rule="evenodd" d="M59.6161 110.768L22.2104 89.119L22 31.2837L60.0435 53.3701L59.6161 110.768Z" fill="#B8B2A8" fill-opacity="0.4"/>
<path fill-rule="evenodd" clip-rule="evenodd" d="M50.7254 101.629L55.0352 104.117L55.4971 104.383L59.8069 106.869V110.729L50.7254 105.49V101.629ZM55.513 99.8407L59.8069 102.321L59.8228 106.189L55.513 103.702V99.8407ZM41.1509 96.1057L45.4607 98.5909L45.9226 98.8581L50.2312 101.345V105.206L41.1509 99.9659V96.1057ZM45.9381 94.3166L55.0196 99.5555L55.0184 103.417L50.7086 100.929L50.2467 100.664L45.9381 98.178V94.3166ZM50.7254 92.5857L55.0352 95.0733L55.4971 95.3394L59.8069 97.8258V101.686L50.7254 96.4471V92.5857ZM55.513 90.7973L59.8057 93.334L59.8228 97.1452L55.513 94.6588V90.7973ZM31.5748 90.5816L35.8847 93.0668L36.3477 93.334L40.6563 95.8205V99.6807L31.5748 94.4406V90.5816ZM36.3634 88.7914L45.4437 94.0315V97.8917L41.1339 95.4053L40.672 95.1381L36.3622 92.6529L36.3634 88.7914ZM41.1509 87.0623L45.4607 89.5476L45.9226 89.8148L50.2312 92.3012V96.1626L41.1509 90.9226V87.0623ZM45.9381 85.2733L55.0196 90.5121L55.0184 94.3736L50.7086 91.8859L50.2467 91.6211L45.9381 89.1347V85.2733ZM50.7254 83.5424L55.0352 86.03L55.4971 86.296L59.8069 88.7824V92.6427L50.7254 87.4038V83.5424ZM31.559 86.0947L35.8689 88.5062V92.3677L31.559 89.8812V86.0947ZM55.513 81.8258L59.8069 84.4689L59.8057 87.9686L55.513 85.6873V81.8258ZM31.5748 81.5383L35.8847 84.0235L36.3477 84.2907L40.6563 86.7771V90.6374L31.5748 85.3973V81.5383ZM36.3634 79.7481L45.4437 84.9882V88.8484L41.1339 86.362L40.672 86.0947L36.3622 83.6095L36.3634 79.7481ZM41.1509 78.019L45.4607 80.5042L45.9226 80.7715L50.2312 83.2579V87.1193L41.1509 81.8792V78.019ZM45.9381 76.3016L55.0184 81.5405V85.4019L45.9381 80.1631V76.3016ZM50.7254 74.5709L55.0352 77.0585L55.4971 77.3245L59.8069 79.8109L59.8057 83.6712L50.7254 78.4323V74.5709ZM31.4037 77.0295L35.8689 79.4629V83.3243L31.4037 80.9136V77.0295ZM55.513 72.921L59.8228 75.3297L59.8069 79.2138L55.513 76.7824V72.921ZM31.4037 72.2823L35.8847 74.9801L36.3477 75.2474L40.6563 77.7338V81.594L31.4037 76.1664V72.2823ZM36.3627 70.7763L45.4442 76.0152V79.8767L36.3627 74.6378V70.7763ZM41.1505 69.0468L45.4604 71.5332L45.9222 71.8004L50.2308 74.2869V78.1471L41.1505 72.9082V69.0468ZM45.9381 67.3969L55.0196 72.6358L55.0184 76.4972L50.7086 74.0095L50.2467 73.7448L45.9381 71.2583V67.3969ZM50.7254 65.666L55.0352 68.1536L55.4971 68.4196L59.8069 70.9061V74.7663L50.7254 69.5274V65.666ZM31.4037 67.9667L35.8692 70.4911V74.3526L31.4037 71.8004V67.9667ZM55.513 64.0162L59.8228 66.4821V70.3641L55.513 67.8777V64.0162ZM31.5748 63.5221L35.8847 66.0085L36.3465 66.2745L40.6563 68.761V72.6224L31.5748 67.3823V63.5221ZM36.3634 61.8717L45.4437 67.1118V70.972L41.1339 68.4856L40.672 68.2184L36.3622 65.7332L36.3634 61.8717ZM41.1509 60.1426L45.4607 62.6279L45.9226 62.8951L50.2312 65.3815V69.2429L41.1509 64.0029V60.1426ZM45.9378 58.4923L55.0193 63.7311V67.5926L50.7094 65.1061L50.2476 64.8389L45.9378 62.3537V58.4923ZM50.7254 56.7612L55.0352 59.2489L55.4971 59.5149L59.8069 62.0025V65.8615L50.7254 60.6227V56.7612ZM31.4037 58.9038L35.8689 61.5865V65.448L31.559 62.9615L31.4037 62.8717V58.9038ZM55.513 55.1114L59.8066 57.4286L59.8228 61.4592L55.513 58.9728V55.1114ZM31.4037 54.5881L35.8847 57.1038L36.3477 57.371L40.6563 59.8574V63.7177L31.4037 58.4722V54.5881ZM36.3634 52.9682L45.4437 58.2071V62.0673L41.1351 59.5809L40.672 59.3148L36.3634 56.8284V52.9682ZM41.1503 51.2379L45.4601 53.7231L45.922 53.9903L50.2318 56.4768V60.3382L41.1503 55.0981V51.2379ZM45.9378 49.5875L55.0193 54.8264V58.6878L50.7094 56.2014L50.2476 55.9342L45.9378 53.449V49.5875ZM50.7251 47.8581L59.8066 53.097V56.9572L50.7251 51.7183V47.8581ZM31.4037 49.8409L35.8689 52.6817V56.5431L31.4037 53.9668V49.8409ZM31.4037 45.5252L35.8859 48.1989L36.3477 48.4649L40.6563 50.9526V54.8128L31.4037 49.4093V45.5252ZM36.3628 44.0633L45.4443 49.3022V53.1636L41.1345 50.676L40.6726 50.41L36.3628 47.9235V44.0633ZM41.1503 42.3327L50.2318 47.5715V51.433L41.1503 46.1941V42.3327ZM31.4037 41.2095L35.8695 43.7769V47.6383L31.5596 45.1519L31.4037 45.0617V41.2095ZM31.576 36.8086L40.6563 42.0475V45.9089L31.576 40.67V36.8086Z" fill="#B18A6F" fill-opacity="0.7"/>
<path fill-rule="evenodd" clip-rule="evenodd" d="M55.9896 45.25L65.0602 50.484L59.8181 53.5085L50.7488 48.2745L55.9896 45.25ZM46.4248 39.7317L55.4954 44.9657L50.2534 47.9891L41.184 42.755L46.4248 39.7317ZM36.8607 34.2124L45.9313 39.4464L40.6892 42.4709L31.6187 37.2369L36.8607 34.2124Z" fill="#DAC2B1"/>
<path fill-rule="evenodd" clip-rule="evenodd" d="M61.9198 41.7973L70.9903 47.0314L65.7483 50.0559L56.6789 44.8219L61.9198 41.7973ZM52.355 36.2791L61.4256 41.5131L56.1835 44.5364L47.1142 39.3024L52.355 36.2791ZM42.7909 30.7598L51.8614 35.9938L46.6194 39.0183L37.5488 33.7843L42.7909 30.7598Z" fill="#DAC2B1"/>
<path fill-rule="evenodd" clip-rule="evenodd" d="M67.848 38.3447L76.9186 43.5787L71.6765 46.6032L62.6072 41.3692L67.848 38.3447ZM58.2832 32.8265L67.3538 38.0605L62.1118 41.0838L53.0424 35.8498L58.2832 32.8265ZM48.7191 27.3071L57.7897 32.5411L52.5476 35.5657L43.4771 30.3317L48.7191 27.3071Z" fill="#DAC2B1"/>
<path fill-rule="evenodd" clip-rule="evenodd" d="M73.7777 34.8926L82.8483 40.1266L77.6062 43.1511L68.5369 37.9171L73.7777 34.8926ZM64.2129 29.3743L73.2835 34.6083L68.0415 37.6316L58.9721 32.3976L64.2129 29.3743ZM54.6488 23.855L63.7194 29.089L58.4773 32.1135L49.4067 26.8795L54.6488 23.855Z" fill="#DAC2B1"/>
<path fill-rule="evenodd" clip-rule="evenodd" d="M79.7064 31.4399L88.777 36.6739L83.5349 39.6985L74.4656 34.4645L79.7064 31.4399ZM70.1416 25.9217L79.2122 31.1557L73.9702 34.179L64.9008 28.945L70.1416 25.9217ZM60.5775 20.4023L69.6481 25.6364L64.406 28.6609L55.3354 23.4269L60.5775 20.4023Z" fill="#DAC2B1"/>
<path fill-rule="evenodd" clip-rule="evenodd" d="M85.6366 27.9873L94.7071 33.2213L89.4651 36.2458L80.3957 31.0118L85.6366 27.9873ZM76.0718 22.469L85.1424 27.7031L79.9003 30.7264L70.831 25.4924L76.0718 22.469ZM66.5077 16.9497L75.5782 22.1837L70.3362 25.2082L61.2656 19.9742L66.5077 16.9497Z" fill="#DAC2B1"/>
<path d="M95.0958 33.0098L60.0444 53.2933L69.021 58.4721L104.5 38.1886L95.0958 33.0098Z" fill="#E6E2D7"/>
<path fill-rule="evenodd" clip-rule="evenodd" d="M69.0191 116L104.498 95.1551V38.1885L69.0191 58.2018V116Z" fill="#979598" fill-opacity="0.7"/>
<path d="M59.6162 111.123V53.0214L69.0202 58.4723V115.87L59.6162 111.123Z" fill="#B8B2A8" fill-opacity="0.7"/>
<path d="M22 89.3854V31.2836L31.404 36.7345V94.1327L22 89.3854Z" fill="#B8B2A8" fill-opacity="0.5"/>
<path d="M53.6318 73.3166L30.2015 59.9314L27.8106 58.4973C26.5946 57.7859 25.8472 56.4828 25.8472 55.074V45.0938" stroke="#524F53" stroke-width="2"/>
<path fill-rule="evenodd" clip-rule="evenodd" d="M25.5982 56.0223L26.4637 55.6615C26.7504 55.5428 27.0947 55.5643 27.4285 55.7545C28.1025 56.1375 28.4821 57.0576 28.2759 57.8143C28.1721 58.193 27.9401 58.4584 27.6508 58.5795L26.6157 59.0099C26.9056 58.89 27.1376 58.6246 27.2409 58.2447C27.4475 57.4892 27.068 56.569 26.3935 56.1849C26.0597 55.9947 25.7154 55.9732 25.4291 56.093" fill="#860211"/>
<path fill-rule="evenodd" clip-rule="evenodd" d="M25.8077 56.4389C25.8556 55.7492 26.3107 55.5561 26.8259 56.0047C27.3411 56.456 27.7204 57.3771 27.6725 58.0668C27.6251 58.7549 27.1695 58.9496 26.6538 58.4999C26.1396 58.0509 25.7608 57.1282 25.8077 56.4389Z" fill="#D0021B"/>
<path d="M35.4424 80.9653L59.1275 94.1254C59.4688 94.3151 59.8426 94.4391 60.2297 94.491L60.7494 94.5607C61.6053 94.6755 62.4694 94.4168 63.1218 93.8505C63.7256 93.3264 64.0724 92.5663 64.0724 91.7671L64.0724 83.9347" stroke="#524F53" stroke-width="2"/>
<path fill-rule="evenodd" clip-rule="evenodd" d="M60.2085 90.9632L61.2209 90.5452C61.5563 90.4077 61.9591 90.4326 62.3494 90.6529C63.1378 91.0966 63.5818 92.1627 63.3407 93.0394C63.2193 93.4782 62.9479 93.7856 62.6095 93.9259L61.3988 94.4246C61.7378 94.2856 62.0092 93.9782 62.1301 93.5381C62.3717 92.6627 61.9277 91.5966 61.1388 91.1516C60.7484 90.9313 60.3457 90.9064 60.0108 91.0452" fill="#860211"/>
<path fill-rule="evenodd" clip-rule="evenodd" d="M60.4536 91.4459C60.5096 90.6468 61.0419 90.423 61.6446 90.9428C62.2472 91.4657 62.6909 92.5328 62.6349 93.3319C62.5794 94.1291 62.0465 94.3547 61.4433 93.8337C60.8418 93.3135 60.3987 92.2445 60.4536 91.4459Z" fill="#D0021B"/>
</svg>