<svg width="29" height="80" viewBox="0 0 29 80" fill="none" xmlns="http://www.w3.org/2000/svg">
<path fill-rule="evenodd" clip-rule="evenodd" d="M18.1028 57.224C20.1513 58.4991 20.1596 60.5571 18.1277 61.8322C16.0875 63.1028 12.7841 63.1073 10.7356 61.8322C8.69121 60.5616 8.67875 58.4991 10.7148 57.224C12.7467 55.9533 16.0543 55.9533 18.1028 57.224" fill="#C7C5C8"/>
<path fill-rule="evenodd" clip-rule="evenodd" d="M14.3743 0C14.3743 0 3.12238 14.2879 3.12238 30.8967C3.12238 37.93 4.1366 50.6516 7.16322 57.0606C8.90142 60.7413 12.9102 61.5311 14.4737 61.5311C16.0372 61.5311 14.3743 0 14.3743 0Z" fill="white"/>
<path fill-rule="evenodd" clip-rule="evenodd" d="M14.3743 0C14.3743 0 25.6818 14.2879 25.6818 30.8967C25.6818 37.93 24.6676 50.6516 21.641 57.0606C19.9028 60.7413 15.894 61.5311 14.3305 61.5311C12.767 61.5311 14.3743 0 14.3743 0Z" fill="white"/>
<ellipse cx="14.4202" cy="27.8547" rx="5.22523" ry="5.24887" fill="#2C3C5A"/>
<ellipse cx="14.4203" cy="27.8547" rx="3.78378" ry="3.8009" fill="#C6D5E9" fill-opacity="0.82"/>
<path fill-rule="evenodd" clip-rule="evenodd" d="M15.2314 24.1627L11.8133 30.6097C11.8133 30.6097 12.0532 30.8217 12.2898 30.9886C12.5265 31.1555 12.7926 31.2636 12.7926 31.2636L16.355 24.6035C16.355 24.6035 16.0858 24.4366 15.7979 24.3237C15.51 24.2107 15.2314 24.1627 15.2314 24.1627Z" fill="white"/>
<path fill-rule="evenodd" clip-rule="evenodd" d="M16.355 24.6035L12.7926 31.2635C12.7926 31.2635 13.098 31.4111 13.3407 31.4895C13.5833 31.5678 13.8678 31.6107 13.8678 31.6107L17.2342 25.3071C17.2342 25.3071 17.1235 25.1535 16.874 24.9538C16.6245 24.7542 16.355 24.6035 16.355 24.6035Z" fill="#C6D5E9"/>
<path fill-rule="evenodd" clip-rule="evenodd" d="M14.3723 48.2865C14.3723 48.2865 12.6586 51.3279 12.3679 54.9344C12.2312 56.6307 12.3679 58.6974 12.3679 60.999C12.3679 71.7912 14.3723 79.4958 14.3723 79.4958V48.2865Z" fill="#D2051E"/>
<path fill-rule="evenodd" clip-rule="evenodd" d="M14.3723 48.2865C14.3723 48.2865 16.1829 51.3279 16.4737 54.9344C16.6104 56.6307 16.4737 58.6974 16.4737 60.999C16.4737 71.7912 14.3723 79.4958 14.3723 79.4958V48.2865Z" fill="#D2051E"/>
<path fill-rule="evenodd" clip-rule="evenodd" d="M24.2534 46.2549C24.2534 46.2549 27.7928 50.881 28.5672 53.9752C29.3416 57.0694 27.1656 72.0358 27.1656 72.0358L19.8199 57.7875L24.2534 46.2549Z" fill="#D2051E"/>
<path fill-rule="evenodd" clip-rule="evenodd" d="M4.51703 46.2549C4.51703 46.2549 0.977644 50.881 0.203256 53.9752C-0.571132 57.0694 1.60483 72.0358 1.60483 72.0358L8.9506 57.7875L4.51703 46.2549Z" fill="#D2051E"/>
<path fill-rule="evenodd" clip-rule="evenodd" d="M14.3723 0C14.3723 0 12.1434 2.31377 10.2134 5.43797C8.28331 8.56216 7.28064 11.8853 7.28064 11.8853C7.28064 11.8853 10.821 14.2789 14.4738 14.2789C18.1265 14.2789 21.6407 11.8853 21.6407 11.8853C21.6407 11.8853 20.1936 8.32939 18.4253 5.43797C16.6571 2.54654 14.3723 0 14.3723 0Z" fill="#D2051E"/>
</svg>