<svg width="128" height="128" viewBox="0 0 128 128" fill="none" xmlns="http://www.w3.org/2000/svg">
<path d="M45.1452 101.91L88.3436 76.272L101.315 83.7394L57.8313 109.263L45.1452 101.91Z" fill="#BBBDBF"/>
<path d="M31.1527 93.8021L43.8388 86.1739L88.3477 75.0435L43.8388 101.093L31.1527 93.8021Z" fill="#BBBDBF"/>
<path d="M45.5 102.5L45.1461 73.3442L66.8666 59.6826L88.3477 47.9131V77L45.5 102.5Z" fill="#929497"/>
<path d="M57.9023 79.6302V82.2506L31 66.5002V63.9502L57.9023 79.6302Z" fill="#58595B"/>
<path d="M57.8964 79.6741V82.2301L100.87 57.6523L57.8964 79.6741Z" fill="#808184"/>
<path d="M57.8357 109.269V111.779L101.315 86.1214V83.7393L57.8357 109.269Z" fill="#808184"/>
<path d="M57.8379 109.271V111.788L31.1579 96.3302V93.7954L57.8379 109.271Z" fill="#58595B"/>
<path d="M45.9126 72.951L43.13 72.2607V101.569L45.9126 102.869V72.951Z" fill="#58595B"/>
<path d="M54.8651 32.7361L54.8589 34.1562L97.7758 59.3446L97.7818 57.9677L54.8651 32.7361Z" fill="#757275"/>
<path d="M54.8581 32.7332L97.7749 57.9648L101.912 55.5656L58.9475 30.377L54.8581 32.7332Z" fill="#7D7C7E"/>
<path d="M36.2247 43.4508L78.6656 68.922L83.326 66.2834L40.3616 41.0948L36.2247 43.4508Z" fill="#7D7C7E"/>
<path d="M43.4847 32.7146L40.2667 41.1436L83.1836 66.332L86.4017 57.903L43.4847 32.7146Z" fill="#595555"/>
<path d="M43.4824 32.7124L86.2571 57.8527L91.3935 54.9356L93.9121 53.4747L51.1374 28.3344L48.5714 29.7951L43.4824 32.7124Z" fill="#9E9D9D"/>
<path d="M31.988 39.6233L34.0955 45.3259L78.2465 70.6147L74.905 64.8117L31.988 39.6233Z" fill="#534F53"/>
<path d="M17.2157 54.3116L17.239 55.9045L60.1566 80.9332L60.1629 79.4916L17.2157 54.3116Z" fill="#595555"/>
<path d="M17.2175 54.3051L60.1646 79.5023L64.2713 77.1375L21.3543 51.9534L17.2175 54.3051Z" fill="#9E9D9D"/>
<path d="M24.4632 43.6272L21.2497 52.0131L64.1667 77.1972L67.3802 68.8156L24.4632 43.6272Z" fill="#595555"/>
<path d="M24.4688 43.6255L67.2437 68.7183L72.3802 65.8012L74.903 64.3403L32.1281 39.2475L29.5578 40.7082L24.4688 43.6255Z" fill="#9E9D9D"/>
<path d="M63.3656 37.7361L63.3594 39.1605L106.276 64.3446L106.282 62.972L63.3656 37.7361Z" fill="#757275"/>
<path d="M63.3708 37.7445L106.288 62.9803L110.425 60.5768L67.4602 35.3882L63.3708 37.7445Z" fill="#7D7C7E"/>
<path d="M59.51 33.7321L61.6173 39.4823L105.768 64.771L102.427 58.968L59.51 33.7321Z" fill="#534F53"/>
<path d="M44.7414 48.4751L44.7827 49.8998L87.6996 75.0882L87.7059 73.6638L44.7414 48.4751Z" fill="#757275"/>
<path d="M44.7359 48.468L87.1768 73.9392L91.8372 71.3006L48.8728 46.1163L44.7359 48.468Z" fill="#7D7C7E"/>
<path d="M51.9857 37.7361L48.7719 46.1695L91.6889 71.3536L94.9026 62.9245L51.9857 37.7361Z" fill="#595555"/>
<path d="M51.9898 37.7344L94.7645 62.8747L99.9009 59.9576L102.424 58.4966L59.6491 33.3563L57.0788 34.817L51.9898 37.7344Z" fill="#9E9D9D"/>
<path d="M49.7471 39.8262V40.5457" stroke="black" stroke-width="0.0402785" stroke-miterlimit="10" stroke-linecap="round" stroke-linejoin="round"/>
<path d="M46.5939 39.4066V54.9105L49.7368 56.7038V40.5478V39.8282L49.5663 39.7271L48.3614 40.4185L45.2185 38.6196" fill="#B60000"/>
<path d="M48.3657 40.0381L45.2228 38.2393V38.6328L48.3657 40.4316V40.0381Z" fill="#B60000"/>
<path d="M48.3693 40.434V40.0405L49.5742 39.3547C49.7106 39.2423 49.9095 39.2648 50.0232 39.3997C50.08 39.4671 50.1028 39.5627 50.0914 39.647V40.3666L49.7504 40.5633V39.8438C49.7561 39.8157 49.7447 39.7819 49.7277 39.7594C49.6879 39.7145 49.6254 39.7089 49.5799 39.7426L48.3693 40.434Z" fill="#7F0000"/>
<path d="M49.5732 39.3535L46.4246 37.5547L45.2254 38.2405L48.3684 40.0394L49.5732 39.3535Z" fill="#E10A0A"/>
<path d="M49.9333 39.3028L46.7904 37.5096C46.671 37.459 46.5346 37.4702 46.4266 37.5433L49.5696 39.3365C49.706 39.2241 49.9049 39.2466 50.0186 39.3815" fill="url(#paint0_linear_1_56982)"/>
<path d="M49.5751 39.7418C49.6206 39.7025 49.6888 39.7137 49.7229 39.7587C49.7399 39.7812 49.7513 39.8149 49.7456 39.843L49.5751 39.7418Z" fill="url(#paint1_linear_1_56982)"/>
<path d="M50.4323 40.3577L50.9495 40.0654L51.2905 40.2622L50.7733 40.5545C50.4494 40.7175 50.0629 40.7175 49.7446 40.5545L50.0856 40.3577C50.1936 40.414 50.3243 40.414 50.4323 40.3577Z" fill="#E10A0A"/>
<path d="M50.7793 40.5547V56.7163C50.4553 56.8793 50.0689 56.8793 49.7506 56.7163V40.5547C50.0746 40.7177 50.4553 40.7177 50.7793 40.5547Z" fill="url(#paint2_linear_1_56982)"/>
<path d="M50.7808 56.7152C50.7637 56.8051 50.7921 56.895 50.849 56.9625C50.9626 57.0974 51.1616 57.1199 51.298 57.0075L59.2036 52.4935V51.8189L53.3383 53.8876C52.9291 54.0562 52.4574 53.8707 52.2869 53.466C52.2357 53.3535 52.2187 53.2299 52.2244 53.1062L51.298 40.2612L50.7808 40.5535V56.7152Z" fill="#7F0000"/>
<path d="M52.4588 53.7354C52.635 53.7691 52.8168 53.7523 52.9873 53.6848L57.1362 52.2176L57.9092 51.9422L55.5335 50.5874L52.1746 52.5043L52.2201 53.0946C52.2144 53.2182 52.2314 53.3419 52.2826 53.4543C52.328 53.5555 52.3906 53.6455 52.4701 53.7185" fill="#E10A0A"/>
<path d="M58.8569 51.6196L59.2036 51.8164L53.3383 53.8907L52.9973 53.6939L57.9192 51.9569L58.8569 51.6196Z" fill="#D60101"/>
<path d="M52.4639 53.7464C52.6401 53.7801 52.822 53.7633 52.9925 53.6958L53.3335 53.8926C53.0323 54.0218 52.6913 53.9488 52.4696 53.7352" fill="url(#paint3_linear_1_56982)"/>
<path d="M55.3657 50.3054V49.6309L52.0523 50.8001L52.1489 52.138L55.3657 50.3054Z" fill="#7F0000"/>
<path d="M52.0295 50.4919L55.019 49.4351L55.3657 49.6318L52.0523 50.8011L52.0295 50.4919Z" fill="#D60101"/>
<path d="M52.1537 52.1373L52.1821 52.5139L55.541 50.597C55.4387 50.5295 55.3762 50.4227 55.3705 50.3047L52.1537 52.1373Z" fill="url(#paint4_linear_1_56982)"/>
<path d="M51.1431 57.3457L59.0487 52.8317C59.1567 52.7586 59.2135 52.6293 59.2022 52.5L51.2965 57.014C51.3079 57.1433 51.2511 57.267 51.1431 57.3457Z" fill="url(#paint5_linear_1_56982)"/>
<path d="M50.0513 57.3753L46.9083 55.582C46.6924 55.4302 46.5787 55.1773 46.6071 54.9243L49.75 56.7176C49.7216 56.9705 49.8353 57.2235 50.0513 57.3753Z" fill="url(#paint6_linear_1_56982)"/>
<path d="M46.6084 54.9012C46.58 55.1598 46.6994 55.4128 46.9097 55.5589C46.8813 55.542 46.8528 55.5252 46.8244 55.5083C46.7789 55.4802 46.7392 55.4465 46.7051 55.4071C46.671 55.3678 46.6369 55.3341 46.6028 55.2891C46.5743 55.2497 46.5459 55.2048 46.5232 55.1598C46.5005 55.1148 46.4777 55.0642 46.4607 55.0193C46.4436 54.9687 46.4323 54.9181 46.4209 54.8675C46.4095 54.8169 46.4038 54.7607 46.3982 54.7045C46.3982 54.6707 46.3982 54.6426 46.3925 54.6089C46.4038 54.7438 46.4891 54.8562 46.6084 54.9012Z" fill="url(#paint7_linear_1_56982)"/>
<path d="M46.5947 54.9103C46.4754 54.8541 46.3958 54.7473 46.3788 54.618V39.2827L46.5947 39.4064V54.9103Z" fill="url(#paint8_linear_1_56982)"/>
<rect x="67.4785" y="56.9565" width="2.78261" height="2.78261" fill="url(#paint9_radial_1_56982)"/>
<path d="M71.5171 45.3262V45.5024" stroke="#808080" stroke-width="0.0360821" stroke-miterlimit="10" stroke-linecap="round" stroke-linejoin="round"/>
<path d="M69.332 59.9594L68.0694 59.2393L60.9925 63.283L63.808 64.8944L63.9607 64.8038V64.1995L69.2149 60.0601" fill="#E10A0A"/>
<path d="M69.5278 60.2309L64.2736 64.3703L63.9681 64.1941L69.2224 60.0547L69.5278 60.2309Z" fill="#F01C1C"/>
<path d="M71.3468 60.9377L64.2647 64.9814V64.3771L69.519 60.2327C70.0841 59.7744 70.4456 59.1148 70.5169 58.3946L71.3468 45.9362L71.8101 45.6743V60.1521C71.7948 60.4694 71.6217 60.7665 71.3468 60.9377Z" fill="#7F0000"/>
<path d="M71.354 45.9375L70.5241 58.396L70.2186 58.2197L71.0485 45.7612" fill="#BA0000"/>
<path d="M69.5197 60.2428C70.0848 59.7846 70.4463 59.1249 70.5176 58.4048L70.2121 58.2285C70.1408 58.9486 69.7793 59.6083 69.2142 60.0666L69.5197 60.2428Z" fill="url(#paint10_linear_1_56982)"/>
<path d="M70.0596 58.9152C69.9068 59.308 69.6675 59.6656 69.3468 59.9576L68.0892 59.2375C68.4558 59.0059 68.6849 58.6131 68.7053 58.1851L70.0494 58.9505" fill="url(#paint11_linear_1_56982)"/>
<path d="M71.5059 45.4927L71.0426 45.7545L70.2127 58.218C70.1872 58.495 70.1159 58.7569 70.009 59.0086L70.0294 58.9533L68.6853 58.1878V43.71V43.0654L71.5008 44.6718V45.3164" fill="#B60000"/>
<path d="M71.0556 45.7667L71.5189 45.5048C71.5443 45.4948 71.5647 45.4746 71.5749 45.4495C71.5953 45.3991 71.5698 45.3487 71.5189 45.3286L71.8244 45.1523C71.972 45.2077 72.0433 45.3689 71.9873 45.5149C71.9567 45.5905 71.8651 45.6509 71.8244 45.6761L71.3611 45.9379L71.0556 45.7667Z" fill="#E10A0A"/>
<path d="M72.0013 45.4023L72.0063 59.8802C71.9962 59.996 71.9198 60.0967 71.8129 60.142V45.6642C71.8129 45.6642 71.9402 45.5937 71.9758 45.5031C71.9758 45.498 71.9809 45.493 71.9809 45.488C71.9809 45.4779 71.986 45.4728 71.986 45.4678C71.986 45.4628 71.9911 45.4527 71.9911 45.4477" fill="url(#paint12_linear_1_56982)"/>
<path d="M71.5071 44.6769C71.5224 44.3547 71.6955 44.0576 71.9704 43.8863L73.0498 43.272V43.6245L71.9704 44.2388C71.8788 44.2993 71.8228 44.3949 71.8177 44.5007V45.1453L71.5122 45.3215V44.6769H71.5071Z" fill="#7F0000"/>
<path d="M71.9736 43.8784L69.1581 42.272C68.8832 42.4482 68.7101 42.7403 68.6948 43.0626L71.5103 44.669C71.5256 44.3467 71.6987 44.0496 71.9736 43.8784Z" fill="url(#paint13_linear_1_56982)"/>
<path d="M73.0498 43.2588L70.2343 41.6523L69.155 42.2667L71.9704 43.8781L73.0498 43.2588Z" fill="#E10A0A"/>
<path d="M71.5098 45.4917V45.3154C71.5607 45.3356 71.5811 45.3859 71.5658 45.4363C71.5557 45.4615 71.5353 45.4816 71.5098 45.4917Z" fill="url(#paint14_linear_1_56982)"/>
<path d="M67.6269 43.7868L67.9324 43.9631L68.3957 43.7012C68.4924 43.6509 68.6095 43.6509 68.7012 43.7012V43.4243C68.4924 43.394 68.2735 43.4243 68.0851 43.525L67.6269 43.7868Z" fill="#E10A0A"/>
<path d="M67.9229 58.975L60.8409 63.0187V62.4144L66.0951 58.27C66.6603 57.8117 67.0218 57.152 67.093 56.4319L67.9229 43.9684L68.3862 43.7065V58.1844C68.371 58.5066 68.1979 58.7987 67.9229 58.975Z" fill="#7F0000"/>
<path d="M68.3957 43.7009V58.1585V58.1787C68.4924 58.1283 68.6095 58.1283 68.7012 58.1787V58.1585V43.7009C68.6044 43.6505 68.4924 43.6505 68.3957 43.7009Z" fill="url(#paint15_linear_1_56982)"/>
<path d="M67.0891 56.4225L66.7785 56.2462L67.6135 43.7827L67.9189 43.959L67.0891 56.4225Z" fill="#BA0000"/>
<path d="M66.0949 58.2755L65.7894 58.0993C66.3545 57.641 66.716 56.9813 66.7873 56.2612L67.0928 56.4375C67.0215 57.1576 66.66 57.8173 66.0949 58.2755Z" fill="url(#paint16_linear_1_56982)"/>
<path d="M65.7766 58.0981L60.5223 62.2426L60.8278 62.4188L66.082 58.2744L65.7766 58.0981Z" fill="#F01C1C"/>
<path d="M64.2796 64.3744L63.9741 64.1982V64.8025C63.9843 64.8528 63.9487 64.9032 63.8977 64.9082C63.8723 64.9132 63.8417 64.9032 63.8214 64.8881L61.0059 63.2817C60.9142 63.2212 60.8582 63.1256 60.8531 63.0198V62.4155L60.5477 62.2393V62.8435C60.5629 63.1658 60.736 63.4629 61.011 63.6342L63.8265 65.2406C63.8876 65.2909 63.9741 65.3111 64.0505 65.301C64.2083 65.2758 64.3101 65.1298 64.2847 64.9787V64.3744H64.2796Z" fill="#B60000"/>
<path d="M64.1428 65.2866L71.2248 61.2429C71.3215 61.1774 71.3775 61.0616 71.3623 60.9458L64.2803 64.9895C64.3057 65.1456 64.1988 65.2866 64.0461 65.3118" fill="url(#paint17_linear_1_56982)"/>
<path d="M71.2274 61.2412C71.263 61.216 71.3037 61.1959 71.3394 61.1707C71.3852 61.1354 71.4361 61.1002 71.4769 61.0599C71.5176 61.0196 71.5634 60.9793 71.599 60.934C71.6398 60.8887 71.6754 60.8434 71.706 60.793C71.7416 60.7477 71.7721 60.6973 71.7976 60.647C71.8282 60.5966 71.8536 60.5463 71.874 60.4909C71.8994 60.4355 71.9198 60.3851 71.9351 60.3297C71.9503 60.2743 71.9656 60.2189 71.9758 60.1635C71.986 60.1081 71.9962 60.0527 72.0013 59.9974C72.0063 59.9621 72.0063 59.9269 72.0063 59.8916C71.9962 60.0074 71.9198 60.1081 71.8129 60.1535C71.7976 60.4758 71.6245 60.7729 71.3496 60.9441C71.375 61.0599 71.3241 61.1757 71.2274 61.2412Z" fill="url(#paint18_linear_1_56982)"/>
<path d="M60.9944 63.2734C60.9027 63.2129 60.8467 63.1172 60.8416 63.0115L67.9186 58.9678C67.9236 59.0735 67.9796 59.1742 68.0713 59.2296L60.9944 63.2734Z" fill="url(#paint19_linear_1_56982)"/>
<path d="M63.8187 64.8903L63.9714 64.8047C63.9816 64.855 63.9459 64.9054 63.895 64.9104C63.8645 64.9104 63.839 64.9054 63.8187 64.8903Z" fill="url(#paint20_linear_1_56982)"/>
<path d="M40.5105 44.6018L42.6223 50.3044L86.769 75.5932L83.4274 69.7902L40.5105 44.6018Z" fill="#534F53"/>
<path d="M25.7377 59.3009L25.761 60.8938L68.6786 85.9225L68.6849 84.4808L25.7377 59.3009Z" fill="#595555"/>
<path d="M25.74 59.2836L68.6871 84.4808L72.7937 82.1203L29.8768 56.9319L25.74 59.2836Z" fill="#9E9D9D"/>
<path d="M32.9955 48.6057L29.7776 56.9873L72.6946 82.1757L75.9124 73.7898L32.9955 48.6057Z" fill="#595555"/>
<path d="M32.9946 48.6148L75.7696 73.7033L80.906 70.7862L83.4245 69.3252L40.6496 44.2367L38.0836 45.6931L32.9946 48.6148Z" fill="#9E9D9D"/>
<path d="M94.7476 62.8662L91.6753 71.3428L91.0093 71.7197L87.1108 73.8867L83.3833 69.3643L75.7769 73.6953L72.7046 82.1729L68.6938 84.4902L68.687 85.9141L73.8403 83.0322L77.1021 74.6035L81.9048 71.875L83.0474 71.2148L85.9722 74.6416L86.8228 75.5479L91.0552 73.1494V73.1016L92.8159 72.1123L96.0776 63.6836L100.88 60.9541L102.023 60.2949L104.948 63.7217L105.798 64.6279L110.031 62.2295L110.27 62.0977L110.326 61.9824V60.5479L110.27 60.7021L107.938 62.0215L106.082 63.0576L102.355 58.5352L94.7476 62.8662Z" fill="#686867"/>
<path opacity="0.6" d="M17.2266 40.3941L58.9915 16.4785L110.402 46.6698L68.6936 70.5863L17.2266 40.3941Z" fill="#CCC6BD"/>
<path opacity="0.6" d="M17.2258 54.3071V40.397L68.6929 70.5992V84.4994L17.2258 54.3071Z" fill="#B8B2A8"/>
<path opacity="0.6" d="M110.326 60.6744L110.398 46.6792L68.6846 70.5901L68.7024 84.4922L72.6915 82.1562L75.7663 73.6831L83.3907 69.3401L87.1194 73.8779L91.6689 71.3318L94.7437 62.8588L102.354 58.5179L106.083 63.0257L110.326 60.6744Z" fill="#A0998B"/>
<defs>
<linearGradient id="paint0_linear_1_56982" x1="48.2775" y1="38.3653" x2="48.1595" y2="38.5722" gradientUnits="userSpaceOnUse">
<stop stop-color="#CD0000"/>
<stop offset="1" stop-color="#E10A0A"/>
</linearGradient>
<linearGradient id="paint1_linear_1_56982" x1="49.6588" y1="39.7942" x2="49.7568" y2="39.6529" gradientUnits="userSpaceOnUse">
<stop offset="0.055811" stop-color="#B60000"/>
<stop offset="0.3455" stop-color="#A70000"/>
</linearGradient>
<linearGradient id="paint2_linear_1_56982" x1="50.7812" y1="48.6951" x2="49.7502" y2="48.6951" gradientUnits="userSpaceOnUse">
<stop stop-color="#7F0000"/>
<stop offset="0.4974" stop-color="#9C0000"/>
<stop offset="1" stop-color="#B60000"/>
</linearGradient>
<linearGradient id="paint3_linear_1_56982" x1="53.2799" y1="53.6843" x2="52.4633" y2="53.984" gradientUnits="userSpaceOnUse">
<stop offset="0.3151" stop-color="#D60101"/>
<stop offset="0.6257" stop-color="#CB0000"/>
</linearGradient>
<linearGradient id="paint4_linear_1_56982" x1="53.6635" y1="51.2233" x2="53.9186" y2="51.662" gradientUnits="userSpaceOnUse">
<stop offset="0.1503" stop-color="#7F0000"/>
<stop offset="0.1827" stop-color="#860101"/>
<stop offset="0.5189" stop-color="#C70707"/>
<stop offset="0.6772" stop-color="#E10A0A"/>
</linearGradient>
<linearGradient id="paint5_linear_1_56982" x1="55.0464" y1="54.7015" x2="55.3117" y2="55.1714" gradientUnits="userSpaceOnUse">
<stop offset="0.3151" stop-color="#7F0000"/>
<stop offset="0.6257" stop-color="#7F0000"/>
</linearGradient>
<linearGradient id="paint6_linear_1_56982" x1="48.4097" y1="56.0078" x2="48.2056" y2="56.3655" gradientUnits="userSpaceOnUse">
<stop stop-color="#B60000"/>
<stop offset="0.1839" stop-color="#AE0000"/>
<stop offset="0.8177" stop-color="#940000"/>
</linearGradient>
<linearGradient id="paint7_linear_1_56982" x1="46.7075" y1="55.0286" x2="46.5946" y2="55.1499" gradientUnits="userSpaceOnUse">
<stop offset="0.338" stop-color="#B60000"/>
<stop offset="0.6465" stop-color="#A60F0A"/>
<stop offset="1" stop-color="#981D13"/>
</linearGradient>
<linearGradient id="paint8_linear_1_56982" x1="46.5927" y1="47.0977" x2="46.3792" y2="47.0966" gradientUnits="userSpaceOnUse">
<stop offset="0.087991" stop-color="#B60000"/>
<stop offset="0.9476" stop-color="#AE0000"/>
</linearGradient>
<radialGradient id="paint9_radial_1_56982" cx="0" cy="0" r="1" gradientUnits="userSpaceOnUse" gradientTransform="translate(67.8263 58.3478) rotate(33.6901) scale(1.2541)">
<stop offset="0.4375" stop-color="#7F0000"/>
<stop offset="0.659856" stop-color="#D00606"/>
</radialGradient>
<linearGradient id="paint10_linear_1_56982" x1="70.3909" y1="58.5277" x2="69.4468" y2="60.0951" gradientUnits="userSpaceOnUse">
<stop stop-color="#BA0000"/>
<stop offset="1" stop-color="#F01C1C"/>
</linearGradient>
<linearGradient id="paint11_linear_1_56982" x1="69.3386" y1="58.6431" x2="68.8375" y2="59.5372" gradientUnits="userSpaceOnUse">
<stop stop-color="#B60000"/>
<stop offset="0.3726" stop-color="#C70404"/>
<stop offset="1" stop-color="#E10A0A"/>
</linearGradient>
<linearGradient id="paint12_linear_1_56982" x1="72.0091" y1="52.7717" x2="71.8178" y2="52.7717" gradientUnits="userSpaceOnUse">
<stop stop-color="#7F0000"/>
<stop offset="1" stop-color="#7F0000"/>
</linearGradient>
<linearGradient id="paint13_linear_1_56982" x1="70.4411" y1="43.1734" x2="70.1275" y2="43.7333" gradientUnits="userSpaceOnUse">
<stop stop-color="#E10A0A"/>
<stop offset="1" stop-color="#B60000"/>
</linearGradient>
<linearGradient id="paint14_linear_1_56982" x1="71.5737" y1="45.4051" x2="71.5124" y2="45.4051" gradientUnits="userSpaceOnUse">
<stop stop-color="#7F0000"/>
<stop offset="1" stop-color="#B60000"/>
</linearGradient>
<linearGradient id="paint15_linear_1_56982" x1="68.7024" y1="50.9205" x2="68.3942" y2="50.9205" gradientUnits="userSpaceOnUse">
<stop stop-color="#B60000"/>
<stop offset="1" stop-color="#7F0000"/>
</linearGradient>
<linearGradient id="paint16_linear_1_56982" x1="66.8464" y1="56.7755" x2="66.1282" y2="57.8531" gradientUnits="userSpaceOnUse">
<stop stop-color="#BA0000"/>
<stop offset="1" stop-color="#F01C1C"/>
</linearGradient>
<linearGradient id="paint17_linear_1_56982" x1="67.591" y1="62.9424" x2="67.9062" y2="63.4953" gradientUnits="userSpaceOnUse">
<stop offset="0.2381" stop-color="#7F0000"/>
<stop offset="0.4778" stop-color="#7F0000"/>
</linearGradient>
<linearGradient id="paint18_linear_1_56982" x1="71.9265" y1="60.7271" x2="71.2347" y2="60.3531" gradientUnits="userSpaceOnUse">
<stop offset="0.2381" stop-color="#720000"/>
<stop offset="0.4778" stop-color="#7F0000"/>
</linearGradient>
<linearGradient id="paint19_linear_1_56982" x1="64.3555" y1="60.9847" x2="64.4764" y2="61.1983" gradientUnits="userSpaceOnUse">
<stop stop-color="#7F0000"/>
<stop offset="0.0614383" stop-color="#860101"/>
<stop offset="0.6997" stop-color="#C70707"/>
<stop offset="1" stop-color="#E10A0A"/>
</linearGradient>
<linearGradient id="paint20_linear_1_56982" x1="63.8912" y1="64.8405" x2="63.9991" y2="64.9508" gradientUnits="userSpaceOnUse">
<stop stop-color="#E10A0A"/>
<stop offset="0.5043" stop-color="#CD0505"/>
<stop offset="1" stop-color="#B60000"/>
</linearGradient>
</defs>
</svg>