<svg width="16" height="16" viewBox="0 0 16 16" fill="none" xmlns="http://www.w3.org/2000/svg">
<path d="M12 1.33331C13.1046 1.33331 14 2.22874 14 3.33331C14 4.43788 13.1046 5.33331 12 5.33331C11.4728 5.33331 10.995 5.12756 10.6377 4.79425L5.94238 7.53156C5.97853 7.68198 6 7.83879 6 8.00031C5.99995 8.32156 5.92176 8.62391 5.78711 8.89288L10.5596 11.2796C10.9234 10.9019 11.4341 10.6663 12 10.6663C13.1045 10.6663 13.9998 11.5619 14 12.6663C14 13.7709 13.1046 14.6663 12 14.6663C10.8954 14.6663 10 13.7709 10 12.6663C10 12.5575 10.0106 12.4511 10.0273 12.347L4.90039 9.78351C4.6295 9.92054 4.32433 10.0003 4 10.0003C2.89554 10.0003 2.00018 9.10472 2 8.00031C2 6.89574 2.89543 6.00031 4 6.00031C4.52675 6.00031 5.00413 6.20555 5.36133 6.53839L10.0566 3.79913C10.0209 3.64952 10 3.49387 10 3.33331C10 2.22874 10.8954 1.33331 12 1.33331Z" fill="#D2051E"/>
</svg>
