<svg width="120" height="120" viewBox="0 0 120 120" fill="none" xmlns="http://www.w3.org/2000/svg">
<path d="M3 69.1599L26.9062 88.5L115.5 81L92.0331 61.5L3 69.1599Z" fill="#C2C1B7"/>
<path opacity="0.36" d="M91.5 61.2985V31.5L3 37.0555V69" fill="#A0998B"/>
<path opacity="0.75" d="M115.5 81L91.5 61.8434V31.5L115.5 49.8857" fill="#B8B2A8"/>
<path d="M19.8779 42.7052V70.6036H19.8818C19.8843 70.6727 19.9517 70.7412 20.085 70.7941C20.3588 70.9018 20.8022 70.9022 21.0771 70.7941C21.2233 70.7366 21.2895 70.6604 21.2803 70.5851V42.7052H19.8779Z" fill="#D2051E"/>
<path d="M20.083 42.4238C19.8073 42.5614 19.8062 42.7835 20.0796 42.9211C20.3541 43.0582 20.7986 43.0587 21.0743 42.9211C21.3494 42.784 21.351 42.5614 21.0771 42.4238C20.8037 42.2867 20.3586 42.2867 20.083 42.4238Z" fill="#860211"/>
<path fill-rule="evenodd" clip-rule="evenodd" d="M55.0336 41.6466V69.2902H55.0385C55.041 69.3592 55.1077 69.4277 55.2406 69.4806C55.5144 69.5884 55.9578 69.5887 56.2328 69.4806C56.3792 69.4231 56.4461 69.347 56.4369 69.2716V41.6466H55.0336Z" fill="#D2051E"/>
<path d="M55.2389 41.5483C54.9632 41.6859 54.9621 41.9079 55.2355 42.0455C55.5101 42.1826 55.9546 42.1831 56.2302 42.0455C56.5053 41.9084 56.507 41.6859 56.233 41.5483C55.9596 41.4112 55.5145 41.4112 55.2389 41.5483Z" fill="#860211"/>
<path d="M83.1584 37.0001L83.1594 65.0714H83.1633C83.1658 65.1405 83.2332 65.209 83.3665 65.2618C83.6403 65.3696 84.0838 65.37 84.3586 65.2618C84.5048 65.2043 84.571 65.1282 84.5618 65.0529V37.0001H83.1584Z" fill="#D2051E"/>
<path d="M83.3642 36.7356C83.0886 36.8732 83.0874 37.0953 83.3609 37.2329C83.6354 37.37 84.0799 37.3704 84.3555 37.2329C84.6306 37.0958 84.6323 36.8732 84.3583 36.7356C84.0849 36.5985 83.6399 36.5985 83.3642 36.7356Z" fill="#860211"/>
<path fill-rule="evenodd" clip-rule="evenodd" d="M32.5344 51.3519V83.2211H32.5383C32.5412 83.3 32.6086 83.3784 32.7414 83.4388C33.0153 83.5623 33.4587 83.5628 33.7336 83.4388C33.8795 83.3731 33.9455 83.2858 33.9367 83.1996V51.3324L32.5344 51.3519Z" fill="#D2051E"/>
<path d="M32.739 51.1107C32.4633 51.2483 32.4622 51.4704 32.7356 51.608C33.0101 51.7451 33.4546 51.7456 33.7303 51.608C34.0054 51.4709 34.007 51.2483 33.7331 51.1107C33.4597 50.9736 33.0146 50.9736 32.739 51.1107Z" fill="#860211"/>
<path d="M69.0969 48.5004V80.4086H69.1008C69.1037 80.4875 69.1711 80.5659 69.304 80.6263C69.5778 80.7498 70.0213 80.7503 70.2961 80.6263C70.4419 80.5606 70.508 80.4732 70.4993 80.3871V48.5004H69.0969Z" fill="#D2051E"/>
<path d="M69.3017 48.2357C69.0261 48.3733 69.0249 48.5954 69.2984 48.733C69.5729 48.8701 70.0174 48.8706 70.293 48.733C70.5681 48.5959 70.5698 48.3733 70.2958 48.2357C70.0224 48.0986 69.5774 48.0986 69.3017 48.2357Z" fill="#860211"/>
<path fill-rule="evenodd" clip-rule="evenodd" d="M100.034 44.5033V76.1898H100.038C100.041 76.2688 100.108 76.3472 100.241 76.4076C100.515 76.5311 100.958 76.5316 101.233 76.4076C101.382 76.3408 101.448 76.2519 101.437 76.1644V44.5033H100.034Z" fill="#D2051E"/>
<path d="M100.239 44.4232C99.9636 44.5608 99.9624 44.7829 100.236 44.9205C100.51 45.0576 100.955 45.0581 101.231 44.9205C101.506 44.7834 101.507 44.5608 101.233 44.4232C100.96 44.2861 100.515 44.2861 100.239 44.4232Z" fill="#860211"/>
<path opacity="0.36" d="M115.5 81V49.843L27 55V88.5" fill="#A0998B"/>
<path opacity="0.6" d="M3 37L27 55V88.5L3 69.2027" fill="#B8B2A8"/>
<path opacity="0.55" d="M27 55L3 37L91.5 31.5L115.5 49.8433L27 55Z" fill="#A0998B"/>
</svg>
