<svg width="128" height="112" viewBox="0 0 128 112" fill="none" xmlns="http://www.w3.org/2000/svg">
<path opacity="0.5" d="M78.2256 95.9721L67.0753 104L66.6293 30.4087L78.2256 35.7608" fill="#726658"/>
<path opacity="0.5" d="M54.1409 98.2021L67.0752 104L66.7407 30.4087L54.1409 39.3807" fill="#9B8579"/>
<path opacity="0.6" d="M78.2256 35.7607L66.7408 44.6962L67.0753 104L78.2256 95.526" fill="#9B8579"/>
<path opacity="0.6" d="M54.1409 39.3809L66.7407 44.6963L67.0752 104L54.1409 98.2022" fill="#726658"/>
<path d="M84.8323 73.2068L15.3809 45.0821L55.5568 13.8325L114.108 31.0198L84.8323 73.2068Z" fill="#C2C1B7" fill-opacity="0.6"/>
<path d="M15.2409 44.9634L14 38.687L84.4206 65.9891V73.2069L15.2409 44.9634Z" fill="#B8B2A8" fill-opacity="0.6"/>
<path d="M15.2458 44.9007L14 39.0204L55.4239 9V13.9518L15.2458 44.9007Z" fill="#A0998B" fill-opacity="0.75"/>
<path opacity="0.75" d="M55.4238 13.9786V9L114.798 25.1806L113.865 31.0927L55.4238 13.9786Z" fill="#B8B2A8"/>
<path d="M84.4209 73.2068V65.989L114.798 24.8789L113.859 30.8414L84.4209 73.2068Z" fill="#A0998B" fill-opacity="0.6"/>
<rect x="37.1924" y="39.3286" width="0.892019" height="6.24413" fill="#D2051E"/>
<rect x="47.8965" y="37.5449" width="0.892019" height="6.24413" fill="#D2051E"/>
<rect x="57.709" y="42.897" width="0.892019" height="6.24413" fill="#D2051E"/>
<rect x="52.3569" y="49.1411" width="0.892019" height="6.24413" fill="#D2051E"/>
<rect x="42.5444" y="25.0566" width="0.892019" height="6.24413" fill="#D2051E"/>
<rect x="51.4648" y="27.7324" width="0.892019" height="6.24413" fill="#D2051E"/>
<rect x="59.4932" y="17.0283" width="0.892019" height="6.24413" fill="#D2051E"/>
<rect x="62.1689" y="23.2725" width="0.892019" height="6.24413" fill="#D2051E"/>
<rect x="76.4414" y="25.0566" width="0.892019" height="6.24413" fill="#D2051E"/>
<rect x="82.6855" y="19.7046" width="0.892019" height="6.24413" fill="#D2051E"/>
<rect x="82.6855" y="29.5166" width="0.892019" height="6.24413" fill="#D2051E"/>
<rect x="94.2817" y="26.8403" width="0.892019" height="6.24413" fill="#D2051E"/>
<rect x="84.4697" y="38.437" width="0.892019" height="6.24413" fill="#D2051E"/>
<rect x="75.5493" y="45.5728" width="0.892019" height="6.24413" fill="#D2051E"/>
<rect x="80.0093" y="52.709" width="0.892019" height="6.24413" fill="#D2051E"/>
<rect x="94.2817" y="42.0049" width="0.892019" height="6.24413" fill="#D2051E"/>
<path opacity="0.4" d="M55.7691 9L14 39.0323L84.4206 65.9579L114.798 25.2244L55.7691 9Z" fill="#CCC6BD"/>
</svg>