<svg width="80" height="80" viewBox="0 0 80 80" fill="none" xmlns="http://www.w3.org/2000/svg">
<path fill-rule="evenodd" clip-rule="evenodd" d="M17 28.3026L25.3334 38.3026L20.5171 38.3022C20.469 38.8617 20.4445 39.428 20.4445 40C20.4445 50.8002 29.1998 59.5555 40 59.5555C45.0949 59.5555 49.7348 57.6071 53.2151 54.4148L58.5213 59.1853C53.7243 63.8172 47.1949 66.6666 40 66.6666C25.2724 66.6666 13.3334 54.7276 13.3334 40C13.3334 39.4297 13.3513 38.8637 13.3865 38.3023L8.66669 38.3026L17 28.3026ZM42.0563 26.6666V29.5833H48.3063V33.75H35.3896V37.9166H48.7229V50.4166H42.0563V53.3333H37.8896V50.4166H31.6396V46.25H44.5563V42.0833H31.2229V29.5833H37.8896V26.6666H42.0563ZM40 13.3333C54.7276 13.3333 66.6667 25.2724 66.6667 40C66.6667 40.477 66.6542 40.9512 66.6294 41.4221L70.9978 41.4207L62.6645 51.4207L54.3312 41.4207L58.7267 41.42L58.7507 41.193C58.7951 40.6593 58.8178 40.1195 58.8178 39.5743C58.8178 28.9465 50.2022 20.3309 39.5744 20.3309C34.5603 20.3309 29.9942 22.2486 26.5693 25.3905L21.4788 20.8147C26.2757 16.1827 32.8051 13.3333 40 13.3333Z" fill="#D2051E"/>
</svg>