<svg width="120" height="120" viewBox="0 0 120 120" fill="none" xmlns="http://www.w3.org/2000/svg">
<path opacity="0.5" d="M32.9062 72.9964L41.2542 77.8162L87.1677 51.3079L78.8199 46.4883L32.9062 72.9964Z" fill="#9E8B64"/>
<path opacity="0.5" d="M78.8204 22.3828L78.8199 46.4815L32.9062 72.9897L32.908 48.8902" fill="#B7A580"/>
<path opacity="0.5" d="M87.1798 51.301L78.832 46.4815L78.8325 22.3828L87.18 27.2028" fill="#998B70"/>
<path opacity="0.5" d="M16.2305 92.2972L24.5786 97.117L70.4919 70.6087L62.1441 65.7891L16.2305 92.2972Z" fill="#9E8B64"/>
<path opacity="0.5" d="M62.1446 41.6836L62.1441 65.7823L16.2305 92.2904L16.2324 68.191" fill="#B7A580"/>
<path opacity="0.5" d="M70.4806 70.6019L62.1328 65.7823L62.1333 41.6836L70.4806 46.5035" fill="#998B70"/>
<path opacity="0.5" d="M49.5938 82.6292L57.9417 87.449L103.855 60.9407L95.5073 56.1211L49.5938 82.6292Z" fill="#9E8B64"/>
<path opacity="0.5" d="M95.5079 32.0391L95.5074 56.1378L49.5938 82.6459L49.5956 58.5465" fill="#B7A580"/>
<path opacity="0.5" d="M103.856 60.9574L95.5078 56.1378L95.5083 32.0391L103.856 36.859" fill="#998B70"/>
<g opacity="0.5">
<path d="M70.476 70.5867V46.4883L24.5625 72.9964L24.5626 97.0948" fill="#B7A683"/>
<path d="M16.2205 68.1796L24.5667 73.0004V97.0988L16.2188 92.279" fill="#A39478"/>
<path d="M62.1304 41.6836L16.2188 68.1907L24.5649 73.0114L70.4784 46.5032" fill="#EDDDBE"/>
</g>
<path d="M68.7306 62.9999L67.9806 64.299L42.6494 49.674C42.2907 49.4668 42.1678 49.0082 42.3749 48.6494C42.582 48.2907 43.0407 48.1678 43.3994 48.3749L68.7306 62.9999Z" fill="#D2051E"/>
<path d="M68.943 62.6891L68.4599 62.4112C68.2997 62.3197 68.0874 62.3185 67.861 62.4295C67.4039 62.653 67.0605 63.2457 67.0938 63.7563C67.1109 64.0119 67.2198 64.1982 67.3813 64.2914L67.9591 64.623C67.7972 64.5305 67.6883 64.3443 67.6717 64.088C67.6379 63.5781 67.9813 62.9854 68.4389 62.7611C68.6653 62.6501 68.8776 62.6513 69.0373 62.7435" fill="#860211"/>
<path d="M69.2896 63.2591C69.2624 62.7526 68.8762 62.5276 68.4255 62.7543C67.9749 62.9829 67.6313 63.5761 67.6586 64.0827C67.6854 64.588 68.0721 64.8142 68.5231 64.5868C68.9729 64.3596 69.3161 63.7652 69.2896 63.2591Z" fill="#D0021B"/>
<path d="M67.2306 73.4999L66.4806 74.799L41.1494 60.174C40.7907 59.9668 40.6678 59.5082 40.8749 59.1494C41.082 58.7907 41.5407 58.6678 41.8994 58.8749L67.2306 73.4999Z" fill="#D2051E"/>
<path d="M67.443 73.1891L66.9599 72.9112C66.7997 72.8197 66.5874 72.8185 66.361 72.9295C65.9039 73.153 65.5605 73.7457 65.5938 74.2563C65.6109 74.5119 65.7198 74.6982 65.8813 74.7914L66.4591 75.123C66.2972 75.0305 66.1883 74.8443 66.1717 74.588C66.1379 74.0781 66.4813 73.4854 66.9389 73.2611C67.1653 73.1501 67.3776 73.1513 67.5373 73.2435" fill="#860211"/>
<path d="M67.7896 73.7591C67.7624 73.2526 67.3762 73.0276 66.9255 73.2543C66.4749 73.4829 66.1313 74.0761 66.1586 74.5827C66.1854 75.088 66.5721 75.3142 67.0231 75.0868C67.4729 74.8596 67.8161 74.2652 67.7896 73.7591Z" fill="#D0021B"/>
<g opacity="0.5">
<path d="M87.1635 51.2859V27.1875L41.25 53.6957L41.2501 77.7942" fill="#B7A683"/>
<path d="M32.908 48.8788L41.2542 53.6995V77.798L32.9062 72.9782" fill="#A39478"/>
<path d="M78.8179 22.3828L32.9062 48.8899L41.2524 53.7108L87.1659 27.2025" fill="#EDDDBE"/>
</g>
<g opacity="0.5">
<path d="M103.856 60.9439L103.851 36.8438L57.9375 63.3519L57.9376 87.4505" fill="#B7A683"/>
<path d="M49.5956 58.535L57.9417 63.3559V87.4543L49.5938 82.6345" fill="#A39478"/>
<path d="M95.5054 32.0391L49.5938 58.5462L57.9399 63.367L103.853 36.8587" fill="#EDDDBE"/>
</g>
</svg>
